<svg width="239" height="238" viewBox="0 0 239 238" fill="none" xmlns="http://www.w3.org/2000/svg">
<g clip-path="url(#clip0_59_1106)">
<mask id="mask0_59_1106" style="mask-type:luminance" maskUnits="userSpaceOnUse" x="0" y="0" width="239" height="238">
<path d="M239 0H0V238H239V0Z" fill="white"/>
</mask>
<g mask="url(#mask0_59_1106)">
<path d="M218.058 94.1117L146.579 93.4757C138.362 93.4026 131.625 99.9917 131.535 108.193L130.982 157.946C130.891 166.147 137.479 172.854 145.696 172.928L217.176 173.564C225.393 173.637 232.129 167.048 232.221 158.847L232.773 109.094C232.863 100.893 226.276 94.1848 218.058 94.1117Z" fill="#F05550"/>
<path d="M217.171 173.996L145.694 173.36C141.632 173.325 137.753 171.681 134.911 168.789C132.069 165.898 130.495 161.996 130.537 157.942L131.089 108.189C131.134 104.132 132.792 100.256 135.699 97.4126C138.605 94.5694 142.521 92.9925 146.587 93.0287L218.063 93.6645C222.128 93.7008 226.009 95.347 228.851 98.2413C231.694 101.136 233.266 105.041 233.221 109.098L232.669 158.851C232.619 162.906 230.96 166.778 228.053 169.618C225.148 172.458 221.233 174.033 217.171 173.996ZM146.577 93.909C142.742 93.8749 139.047 95.3625 136.305 98.0447C133.563 100.727 131.999 104.384 131.957 108.212L131.404 157.964C131.366 161.788 132.849 165.47 135.531 168.197C138.213 170.925 141.871 172.475 145.704 172.509L217.18 173.145C221.012 173.179 224.705 171.693 227.447 169.014C230.188 166.335 231.755 162.683 231.801 158.857L232.353 109.09C232.396 105.263 230.913 101.579 228.231 98.8481C225.549 96.1177 221.889 94.5645 218.053 94.5304L146.577 93.909Z" fill="black"/>
<path d="M203.364 113.016C203.364 113.016 197.899 116.596 195.173 121.826C191.627 128.621 196.704 136.701 204.374 136.415L211.123 136.475C217.349 136.529 221.94 130.57 220.171 124.613C219.181 121.287 216.486 118.054 212.119 113.656C212.119 113.656 215.833 110.342 216.022 106.172C216.022 106.172 212.441 103.973 209.827 105.571C207.213 107.17 200.382 102.758 199.436 104.126C199.422 104.128 205.373 109.368 203.364 113.016Z" fill="white"/>
<path d="M200.142 103.861C201.822 103.876 205.678 105.904 208.268 105.927C208.807 105.955 209.345 105.833 209.818 105.574C210.501 105.17 211.283 104.968 212.074 104.991C214.115 105.009 216.013 106.18 216.013 106.18C215.825 110.35 212.11 113.664 212.11 113.664C216.477 118.063 219.173 121.295 220.162 124.622C221.929 130.575 217.341 136.539 211.115 136.483L204.364 136.423C204.2 136.422 204.038 136.42 203.877 136.419C196.485 136.354 191.685 128.472 195.163 121.823C197.899 116.593 203.356 113.012 203.356 113.012C205.371 109.366 199.407 104.125 199.407 104.125C199.496 104.025 199.607 103.947 199.733 103.901C199.859 103.854 199.995 103.839 200.127 103.858L200.142 103.861ZM200.137 102.992C199.319 102.985 198.901 103.336 198.684 103.631C198.558 103.807 198.504 104.022 198.529 104.236C198.554 104.45 198.659 104.646 198.822 104.787C200.299 106.087 203.788 109.941 202.666 112.435C201.629 113.15 196.912 116.573 194.366 121.435C193.505 123.079 193.079 124.915 193.129 126.767C193.18 128.62 193.705 130.427 194.655 132.018C195.605 133.609 196.948 134.929 198.556 135.853C200.165 136.777 201.983 137.273 203.84 137.296C204.008 137.297 204.179 137.299 204.346 137.3L211.079 137.36C212.678 137.381 214.26 137.024 215.695 136.317C217.132 135.61 218.379 134.574 219.337 133.293C220.296 132.042 220.943 130.582 221.226 129.033C221.509 127.485 221.42 125.892 220.965 124.387C219.96 120.999 217.281 117.741 213.308 113.678C214.445 112.461 216.7 109.64 216.859 106.228C216.867 106.074 216.832 105.921 216.76 105.785C216.688 105.649 216.58 105.535 216.449 105.454C216.363 105.402 214.318 104.163 212.064 104.143C211.109 104.117 210.167 104.363 209.347 104.851C209.011 105.024 208.634 105.103 208.257 105.078C206.962 105.067 205.2 104.474 203.644 103.924C202.236 103.438 201.021 103.02 200.13 103.012L200.137 102.992Z" fill="black"/>
<path d="M208.15 114.198C208.082 114.197 208.016 114.181 207.956 114.151C207.897 114.12 207.844 114.076 207.804 114.021C207.764 113.968 207.737 113.905 207.727 113.839C207.715 113.772 207.72 113.705 207.739 113.641C208.432 111.34 205.767 108.855 205.735 108.832C205.657 108.753 205.613 108.647 205.612 108.536C205.61 108.426 205.651 108.319 205.726 108.237C205.801 108.156 205.904 108.105 206.015 108.098C206.126 108.089 206.234 108.124 206.321 108.194C206.446 108.31 209.415 111.089 208.572 113.887C208.545 113.978 208.489 114.058 208.413 114.113C208.337 114.169 208.244 114.199 208.15 114.198Z" fill="#1D1D1B"/>
<path d="M209.804 114.267C209.697 114.264 209.594 114.22 209.517 114.143C209.437 114.062 209.393 113.952 209.394 113.837C209.395 113.722 209.441 113.613 209.523 113.532C210.829 112.203 210.533 109.127 210.53 109.095C210.524 109.038 210.53 108.98 210.547 108.926C210.563 108.871 210.591 108.821 210.627 108.777C210.663 108.732 210.707 108.695 210.758 108.668C210.809 108.642 210.864 108.624 210.921 108.619C210.978 108.613 211.036 108.618 211.091 108.635C211.146 108.651 211.196 108.678 211.24 108.714C211.285 108.751 211.321 108.795 211.348 108.845C211.375 108.896 211.392 108.951 211.398 109.008C211.41 109.15 211.739 112.517 210.15 114.138C210.106 114.183 210.052 114.219 209.992 114.241C209.932 114.264 209.868 114.272 209.804 114.267Z" fill="#1D1D1B"/>
<path d="M211.145 121.599C210.381 121.617 209.656 121.936 209.126 122.486C208.597 123.036 208.307 123.773 208.319 124.535L208.317 124.633C208.286 123.881 207.961 123.172 207.413 122.657C206.865 122.141 206.137 121.86 205.384 121.873C203.793 121.905 202.395 123.229 202.557 124.809C202.857 127.724 206.487 130.276 207.894 131.164C208.056 131.265 208.245 131.314 208.436 131.303C208.628 131.292 208.811 131.223 208.959 131.104C210.351 129.991 214.127 126.76 214.08 124.416C214.064 123.654 213.747 122.929 213.196 122.402C212.646 121.874 211.909 121.585 211.145 121.599Z" fill="#71B2E8"/>
<path d="M208.369 131.739C208.119 131.737 207.875 131.664 207.665 131.53C206.103 130.549 202.441 127.931 202.126 124.843C202.086 124.435 202.131 124.023 202.262 123.633C202.391 123.243 202.601 122.885 202.876 122.582C203.192 122.228 203.576 121.943 204.007 121.744C204.437 121.546 204.904 121.439 205.377 121.429C205.335 121.859 205.453 122.289 205.708 122.639C205.962 122.987 206.337 123.23 206.76 123.321C207.183 123.414 207.625 123.347 208.003 123.135C208.381 122.924 208.668 122.581 208.811 122.172C209.112 121.858 209.473 121.606 209.871 121.431C210.27 121.257 210.7 121.162 211.135 121.154C212.014 121.137 212.863 121.468 213.496 122.076C214.129 122.682 214.495 123.517 214.512 124.394C214.559 126.896 210.833 130.133 209.228 131.43C208.986 131.628 208.682 131.737 208.369 131.739ZM205.466 122.304L205.393 122.303C205.041 122.312 204.694 122.391 204.373 122.538C204.052 122.684 203.765 122.893 203.527 123.153C203.331 123.368 203.182 123.622 203.09 123.896C202.997 124.172 202.963 124.463 202.988 124.753C203.274 127.529 206.996 130.073 208.128 130.787C208.213 130.84 208.313 130.866 208.413 130.859C208.513 130.854 208.61 130.817 208.689 130.755C209.856 129.816 213.69 126.591 213.647 124.412C213.635 123.764 213.366 123.149 212.898 122.7C212.43 122.252 211.803 122.007 211.154 122.02C210.505 122.034 209.887 122.304 209.437 122.773C208.986 123.24 208.741 123.867 208.752 124.516L208.751 124.613L207.884 124.638C207.855 124.014 207.588 123.425 207.139 122.992C206.69 122.558 206.091 122.313 205.466 122.304Z" fill="#1D1D1B"/>
<path d="M209.682 114.68C206.533 114.651 202.717 113.353 202.504 113.283C202.394 113.245 202.305 113.166 202.254 113.063C202.205 112.959 202.197 112.84 202.235 112.73C202.273 112.621 202.352 112.532 202.456 112.482C202.559 112.43 202.679 112.424 202.787 112.46C202.854 112.485 209.421 114.708 212.06 113.414C212.163 113.364 212.284 113.357 212.392 113.394C212.501 113.432 212.591 113.511 212.641 113.615C212.691 113.718 212.698 113.838 212.661 113.946C212.623 114.056 212.543 114.146 212.44 114.196C211.568 114.561 210.625 114.726 209.682 114.68Z" fill="black"/>
<path d="M202.621 145.786C202.506 145.785 202.396 145.737 202.316 145.655C202.235 145.571 202.191 145.46 202.192 145.344C202.193 145.228 202.24 145.118 202.322 145.036C202.405 144.955 202.516 144.911 202.63 144.912L223.024 144.729C223.081 144.728 223.137 144.737 223.189 144.759C223.243 144.78 223.292 144.812 223.333 144.852C223.374 144.893 223.406 144.94 223.427 144.993C223.45 145.046 223.461 145.103 223.462 145.161C223.462 145.276 223.417 145.388 223.336 145.47C223.256 145.553 223.146 145.6 223.031 145.602L202.639 145.782L202.621 145.786Z" fill="black"/>
<path d="M222.892 157.779L206.267 157.623C206.152 157.622 206.042 157.575 205.961 157.493C205.88 157.41 205.835 157.297 205.837 157.182C205.838 157.066 205.885 156.955 205.967 156.874C206.049 156.793 206.16 156.747 206.275 156.749L222.902 156.903C223.017 156.904 223.127 156.951 223.208 157.035C223.287 157.117 223.333 157.229 223.332 157.345C223.329 157.46 223.283 157.572 223.2 157.653C223.118 157.735 223.008 157.78 222.892 157.779Z" fill="black"/>
<path d="M237.078 149.81C236.965 149.809 236.858 149.762 236.779 149.68C236.7 149.599 236.657 149.488 236.658 149.374L237.059 111.261C237.06 111.146 237.105 111.036 237.186 110.956C237.267 110.876 237.374 110.832 237.487 110.833C237.599 110.834 237.707 110.88 237.786 110.961C237.864 111.044 237.908 111.154 237.907 111.269L237.507 149.381C237.506 149.496 237.459 149.605 237.379 149.686C237.299 149.766 237.19 149.811 237.078 149.81Z" fill="black"/>
<path d="M217.215 97.7263L182.395 97.4011C182.203 97.3993 182.02 97.3206 181.885 97.1823C181.751 97.0439 181.677 96.8573 181.679 96.6634C181.681 96.4696 181.759 96.2844 181.896 96.1486C182.034 96.0128 182.218 95.9374 182.41 95.9392L217.231 96.2644C217.423 96.2662 217.606 96.345 217.741 96.4833C217.875 96.6217 217.949 96.8083 217.946 97.0021C217.945 97.196 217.867 97.3812 217.73 97.517C217.592 97.6528 217.407 97.7281 217.215 97.7263Z" fill="white"/>
<path d="M57.209 136.119L42.6286 94.4275C41.8459 92.1893 41.5309 89.8135 41.7033 87.4465C41.8757 85.0793 42.5316 82.7713 43.6306 80.6643C45.711 76.6749 49.2556 73.641 53.5207 72.1992L99.4752 56.6718C99.8152 56.5549 100.175 56.5068 100.533 56.5302C100.891 56.5535 101.241 56.648 101.562 56.8079C101.884 56.9678 102.169 57.1901 102.403 57.4618C102.637 57.7333 102.814 58.0489 102.924 58.39L131.043 144.677C131.186 145.116 131.214 145.583 131.125 146.036C131.037 146.489 130.832 146.911 130.533 147.264C130.234 147.617 129.849 147.887 129.416 148.05C128.984 148.213 128.517 148.262 128.06 148.194L59.3681 137.887C58.8807 137.817 58.4221 137.615 58.0416 137.303C57.6612 136.992 57.3733 136.582 57.209 136.119Z" fill="white"/>
<path d="M100.367 56.5376C100.933 56.5424 101.483 56.7246 101.939 57.0583C102.395 57.3921 102.735 57.8607 102.91 58.3981L131.029 144.685C131.161 145.092 131.195 145.525 131.127 145.949C131.059 146.371 130.892 146.773 130.639 147.119C130.386 147.465 130.054 147.747 129.671 147.941C129.288 148.134 128.864 148.235 128.436 148.233C128.305 148.232 128.175 148.221 128.046 148.201L59.3537 137.892C58.8678 137.82 58.4113 137.616 58.0335 137.304C57.6555 136.991 57.3704 136.582 57.209 136.119L42.6285 94.4271C41.8701 92.2584 41.5506 89.9596 41.6886 87.6641C41.8266 85.3687 42.4193 83.1222 43.4325 81.0546C44.4456 78.987 45.8589 77.1397 47.5907 75.6195C49.3223 74.0994 51.3379 72.9366 53.5207 72.1988L99.4752 56.6713C99.7628 56.575 100.064 56.5269 100.367 56.5289L100.367 56.5376ZM100.377 55.663C99.9775 55.6592 99.5799 55.7232 99.2012 55.8521L53.2469 71.3797C50.9552 72.1537 48.8386 73.374 47.0203 74.9696C45.202 76.5653 43.7179 78.5047 42.654 80.6753C41.5903 82.8458 40.9678 85.2045 40.8229 87.6144C40.678 90.0243 41.0135 92.4376 41.81 94.7145L56.3907 136.406C56.6059 137.016 56.983 137.554 57.4819 137.966C57.9807 138.376 58.5823 138.644 59.2225 138.74L127.914 149.061C128.084 149.088 128.255 149.101 128.426 149.103C128.991 149.105 129.55 148.973 130.055 148.718C130.561 148.463 130.999 148.092 131.333 147.635C131.672 147.179 131.896 146.649 131.985 146.088C132.075 145.528 132.029 144.956 131.849 144.418L103.734 58.1309C103.503 57.4211 103.054 56.8022 102.451 56.3615C101.849 55.9207 101.122 55.6805 100.374 55.6746L100.377 55.663Z" fill="black"/>
<path d="M45.1771 84.2905L87.5787 132.571L78.9139 135.68L42.1467 97.3143L45.1771 84.2905Z" fill="#EBEBEB"/>
<path d="M42.3335 80.382C41.2367 82.4875 40.5825 84.7941 40.411 87.1595C40.2394 89.525 40.5545 91.8991 41.3364 94.1355L43.3397 99.8699C44.5204 94.7888 52.8919 93.4821 52.8919 93.4821C45.0749 83.4141 48.6603 75.4692 50.4648 72.6233C46.9729 74.2416 44.1132 76.9702 42.3335 80.382Z" fill="#07ACEE"/>
<path d="M48.3795 74.8091C46.8142 78.6984 45.9032 85.1721 51.3923 92.9125C49.2972 93.4338 45.3635 94.7413 43.4442 97.543L42.1533 93.8483C40.9604 90.4375 40.9236 86.726 42.0487 83.2855C43.1738 79.8451 45.3983 76.8667 48.3795 74.8091ZM50.4648 72.6233C46.5424 74.4395 43.4339 77.6498 41.7459 81.6275C40.0579 85.6053 39.912 90.0648 41.3365 94.1355L43.3397 99.8699C44.5204 94.7888 52.892 93.4821 52.892 93.4821C45.0749 83.4141 48.6604 75.4692 50.4648 72.6233Z" fill="black"/>
<path d="M40.3876 191.522L10.4291 159.069C8.82104 157.326 7.58806 155.272 6.80628 153.034C6.0245 150.795 5.7104 148.419 5.88331 146.052C6.2121 141.568 8.26743 137.382 11.6177 134.37L47.7015 101.93C47.9678 101.691 48.279 101.507 48.6166 101.388C48.9542 101.269 49.3116 101.218 49.6686 101.238C50.0256 101.258 50.375 101.349 50.6963 101.504C51.0178 101.66 51.3049 101.878 51.5414 102.145L111.66 170.148C111.965 170.494 112.177 170.911 112.275 171.362C112.373 171.812 112.354 172.281 112.218 172.722C112.083 173.164 111.838 173.565 111.504 173.886C111.171 174.206 110.761 174.436 110.314 174.554L43.0645 192.302C42.5888 192.427 42.0882 192.421 41.6166 192.284C41.1449 192.146 40.7201 191.883 40.3876 191.522Z" fill="white"/>
<path d="M49.5397 101.23C49.921 101.231 50.2976 101.312 50.6446 101.469C50.9916 101.626 51.3012 101.854 51.5531 102.139L111.671 170.142C111.977 170.487 112.189 170.905 112.287 171.357C112.384 171.807 112.364 172.275 112.23 172.717C112.095 173.159 111.849 173.559 111.516 173.879C111.182 174.2 110.772 174.43 110.325 174.548L43.0763 192.296C42.8432 192.36 42.6022 192.391 42.3609 192.388C41.9915 192.384 41.6271 192.305 41.2898 192.156C40.9524 192.007 40.6494 191.79 40.3993 191.519L10.4293 159.07C8.87024 157.381 7.66304 155.399 6.87809 153.24C6.09314 151.08 5.74593 148.784 5.85649 146.487C5.96705 144.189 6.53323 141.935 7.5222 139.855C8.51118 137.775 9.90336 135.911 11.6178 134.37L47.7016 101.93C48.2059 101.477 48.8621 101.229 49.5397 101.236V101.23ZM49.5496 100.37C48.6547 100.361 47.7884 100.688 47.1223 101.287L11.0382 133.727C9.23894 135.345 7.77818 137.302 6.7404 139.486C5.70263 141.67 5.10859 144.036 4.99269 146.448C4.87678 148.86 5.24131 151.27 6.0652 153.538C6.88908 155.805 8.15572 157.886 9.79208 159.658L39.7504 192.112C40.0804 192.469 40.4803 192.755 40.9255 192.953C41.3706 193.151 41.8517 193.255 42.3392 193.26C42.6587 193.262 42.9771 193.222 43.2862 193.141L110.532 175.393C111.123 175.237 111.664 174.933 112.104 174.51C112.544 174.086 112.869 173.558 113.047 172.974C113.226 172.391 113.252 171.772 113.122 171.177C112.993 170.582 112.714 170.029 112.311 169.573L52.1929 101.57C51.8611 101.197 51.4546 100.897 50.9994 100.69C50.5442 100.484 50.0502 100.374 49.5496 100.37Z" fill="black"/>
<path d="M4.6159 146.231C4.44326 148.596 4.75691 150.97 5.53757 153.207C6.31822 155.444 7.54941 157.496 9.15517 159.237L13.2725 163.701C12.3412 158.572 19.5208 154.056 19.5208 154.056C8.33202 147.925 8.48405 139.216 9.01586 135.892C6.44616 138.759 4.89869 142.396 4.6159 146.231Z" fill="#71B2E8"/>
<path d="M7.95249 138.724C8.05751 142.908 9.78378 149.206 17.906 154.131C16.1877 155.438 13.0901 158.195 12.434 161.527L9.77949 158.648C7.33029 155.994 5.82468 152.605 5.49455 149.006C5.16442 145.406 6.02804 141.794 7.95246 138.727L7.95249 138.724ZM9.00413 135.895C6.11733 139.114 4.53193 143.29 4.55768 147.607C4.58343 151.923 6.21853 156.071 9.14344 159.24L13.2609 163.703C12.3294 158.574 19.5091 154.058 19.5091 154.058C8.32028 147.927 8.47233 139.219 9.00413 135.895Z" fill="black"/>
<path d="M29.1711 149.156L23.8751 153.635C22.5523 154.754 22.3879 156.726 23.5079 158.039L27.9919 163.3C29.1119 164.613 31.0922 164.772 32.4148 163.653L37.711 159.174C39.0337 158.055 39.198 156.083 38.0781 154.769L33.594 149.509C32.4741 148.196 30.4939 148.037 29.1711 149.156Z" fill="#71B2E8"/>
<path d="M30.3861 164.969C30.2994 164.968 30.2126 164.968 30.1258 164.967C29.6591 164.93 29.2048 164.801 28.7885 164.589C28.3723 164.375 28.0026 164.082 27.7007 163.726L23.2229 158.459C22.6131 157.739 22.3147 156.806 22.3932 155.864C22.4718 154.923 22.9208 154.05 23.6419 153.437L28.9283 148.95C29.2859 148.647 29.6994 148.417 30.1456 148.273C30.5919 148.129 31.0621 148.075 31.529 148.112C31.9958 148.15 32.4504 148.278 32.8669 148.492C33.2833 148.705 33.6533 148.998 33.9558 149.355L38.4424 154.612C38.7456 154.968 38.9754 155.381 39.1187 155.826C39.2619 156.271 39.3156 156.74 39.2769 157.206C39.2383 157.673 39.1081 158.127 38.8935 158.543C38.6789 158.96 38.3841 159.331 38.0263 159.634L32.7402 164.118C32.0849 164.679 31.2476 164.981 30.3861 164.969ZM31.2606 148.959C30.6127 148.953 29.984 149.182 29.4902 149.602L24.201 154.086C23.6556 154.55 23.3162 155.211 23.2571 155.924C23.198 156.636 23.4238 157.343 23.8855 157.887L28.3604 163.153C28.5891 163.423 28.8692 163.646 29.1845 163.808C29.4998 163.969 29.8439 164.068 30.1974 164.096C30.551 164.125 30.907 164.083 31.2449 163.974C31.5828 163.865 31.8959 163.69 32.1666 163.461L37.4529 158.974C37.725 158.746 37.9497 158.467 38.1138 158.152C38.278 157.838 38.3782 157.494 38.4091 157.141C38.44 156.788 38.4008 156.432 38.2938 156.096C38.1868 155.758 38.0141 155.445 37.7855 155.175L33.3078 149.906C33.0794 149.635 32.7995 149.414 32.4844 149.253C32.1692 149.091 31.8251 148.994 31.4717 148.967L31.2606 148.959Z" fill="black"/>
<path d="M46.9481 114.569L19.1004 138.121C17.7949 139.226 17.6325 141.173 18.738 142.469L18.7398 142.471C19.8451 143.768 21.7995 143.924 23.105 142.819L50.9527 119.267C52.2583 118.163 52.4205 116.217 51.3152 114.92L51.3133 114.918C50.208 113.621 48.2536 113.465 46.9481 114.569Z" fill="#07ACEE"/>
<path d="M21.1043 144.148C20.3845 144.142 19.6839 143.917 19.0973 143.502C18.5106 143.087 18.0654 142.503 17.8215 141.827C17.5776 141.151 17.5467 140.417 17.7328 139.722C17.9188 139.027 18.3132 138.404 18.8627 137.939L46.6965 114.328C47.4117 113.722 48.3371 113.424 49.2701 113.499C50.2031 113.573 51.0671 114.015 51.673 114.726C52.2777 115.437 52.574 116.362 52.4967 117.293C52.4193 118.226 51.9748 119.09 51.2605 119.697L23.4235 143.31C22.7759 143.859 21.9524 144.156 21.1043 144.148ZM49.0089 114.362C48.3714 114.358 47.753 114.583 47.267 114.997L19.4302 138.608C19.1512 138.83 18.9196 139.107 18.7492 139.42C18.5788 139.734 18.4731 140.078 18.4383 140.433C18.4035 140.787 18.4403 141.145 18.5464 141.485C18.6527 141.824 18.8259 142.14 19.0564 142.411C19.2869 142.682 19.5699 142.904 19.8883 143.064C20.2066 143.223 20.554 143.318 20.91 143.341C21.2659 143.364 21.6229 143.316 21.9602 143.199C22.2973 143.082 22.6079 142.898 22.8732 142.658L50.7069 119.048C51.1216 118.698 51.4194 118.229 51.5605 117.705C51.7017 117.182 51.6795 116.627 51.4967 116.118C51.3138 115.608 50.9793 115.167 50.5377 114.853C50.0962 114.539 49.5687 114.368 49.0261 114.362H49.0089Z" fill="black"/>
<path d="M40.9145 148.254C40.8528 148.254 40.7916 148.241 40.7355 148.215C40.6794 148.188 40.6297 148.151 40.5896 148.103C40.5523 148.061 40.5239 148.01 40.5061 147.957C40.4883 147.902 40.4819 147.845 40.4866 147.788C40.4912 147.73 40.5073 147.676 40.5337 147.624C40.56 147.574 40.596 147.529 40.6399 147.492L63.3363 128.239C63.3797 128.201 63.43 128.173 63.4844 128.154C63.5388 128.136 63.5961 128.13 63.6531 128.133C63.7103 128.137 63.7661 128.152 63.8173 128.178C63.8685 128.204 63.9141 128.239 63.9516 128.282C63.989 128.325 64.0177 128.375 64.0358 128.43C64.0537 128.483 64.0608 128.541 64.0566 128.598C64.0525 128.655 64.0373 128.711 64.0116 128.762C63.9859 128.814 63.9503 128.859 63.907 128.896L41.2077 148.153C41.1258 148.221 41.0213 148.257 40.9145 148.254Z" fill="black"/>
<path d="M54.1508 163.779C54.0887 163.778 54.0274 163.764 53.9713 163.738C53.9153 163.712 53.8657 163.673 53.8259 163.626C53.7889 163.583 53.7609 163.533 53.7434 163.478C53.7259 163.424 53.7192 163.367 53.7238 163.31C53.7286 163.253 53.7445 163.198 53.7707 163.147C53.7968 163.096 53.8328 163.051 53.8764 163.015L76.5756 143.762C76.6635 143.685 76.7777 143.648 76.8934 143.655C77.009 143.664 77.1167 143.718 77.1922 143.806C77.2679 143.893 77.3057 144.007 77.2971 144.123C77.2884 144.239 77.2341 144.346 77.1463 144.422L54.447 163.674C54.3653 163.746 54.2591 163.784 54.1508 163.779Z" fill="black"/>
<path d="M93.5346 68.8649L58.8072 80.1678C57.1791 80.6977 56.288 82.4371 56.8167 84.0529L56.8177 84.0556C57.3465 85.6714 59.0948 86.5516 60.723 86.0218L95.4505 74.7187C97.0785 74.1889 97.9697 72.4494 97.4409 70.8337L97.44 70.8309C96.9112 69.2152 95.1627 68.3349 93.5346 68.8649Z" fill="#71B2E8"/>
<path d="M59.7381 86.5644C58.9014 86.555 58.0958 86.2494 57.465 85.7016C56.8341 85.1539 56.4189 84.3998 56.2929 83.5734C56.1671 82.747 56.3387 81.9019 56.7774 81.1885C57.2161 80.4751 57.8934 79.9396 58.6886 79.6773L93.4009 68.3127C94.292 68.021 95.2615 68.0946 96.0962 68.5173C96.931 68.9401 97.5623 69.6775 97.8517 70.5672C98.1412 71.4568 98.0648 72.4259 97.6395 73.2613C97.214 74.0968 96.4743 74.7299 95.5832 75.0218L60.8741 86.3893C60.5071 86.5084 60.1235 86.5674 59.7381 86.5644ZM94.5242 69.0019C94.2338 68.9992 93.9449 69.0445 93.6692 69.1362L58.9569 80.5007C58.2846 80.7211 57.7268 81.1993 57.406 81.8297C57.0852 82.4602 57.0276 83.1916 57.2462 83.8628C57.4648 84.5341 57.9418 85.0904 58.5718 85.4093C59.2018 85.728 59.9335 85.7833 60.6058 85.5629L95.3149 74.1984C95.9259 74.0088 96.4493 73.6064 96.7894 73.0645C97.1294 72.5227 97.2637 71.8773 97.1678 71.2459C97.0721 70.6145 96.7524 70.0391 96.2672 69.6246C95.782 69.2101 95.1636 68.984 94.5243 68.9874L94.5242 69.0019Z" fill="black"/>
<path d="M61.9777 101.95C61.8874 101.949 61.7994 101.921 61.726 101.869C61.6526 101.816 61.5971 101.742 61.5671 101.657C61.5496 101.603 61.5432 101.546 61.5478 101.489C61.5525 101.432 61.5682 101.376 61.5944 101.326C61.6204 101.275 61.6563 101.229 61.6999 101.193C61.7435 101.156 61.7938 101.127 61.8483 101.11L103.516 87.4556C103.625 87.4182 103.745 87.4257 103.848 87.4765C103.952 87.5273 104.031 87.6173 104.068 87.7265C104.105 87.8359 104.097 87.9555 104.046 88.0593C103.995 88.1631 103.905 88.2423 103.796 88.2797L62.1253 101.934C62.0773 101.948 62.0275 101.953 61.9777 101.95Z" fill="black"/>
<path d="M64.4859 108.755C64.3832 108.754 64.2843 108.717 64.2068 108.649C64.1294 108.581 64.0783 108.489 64.0628 108.387C64.0473 108.286 64.0683 108.183 64.1222 108.095C64.176 108.007 64.2592 107.941 64.3569 107.908L105.649 94.3755C105.759 94.3381 105.878 94.3456 105.982 94.3964C106.086 94.4473 106.165 94.5372 106.202 94.6466C106.239 94.7558 106.231 94.8756 106.18 94.9792C106.129 95.083 106.039 95.1623 105.929 95.1997L64.6368 108.733C64.5881 108.749 64.537 108.756 64.4859 108.755Z" fill="black"/>
<path d="M89.1741 110.427C89.0713 110.426 88.9725 110.388 88.895 110.32C88.8176 110.253 88.7663 110.161 88.7508 110.059C88.7353 109.958 88.7563 109.854 88.8101 109.766C88.8639 109.678 88.9472 109.613 89.0447 109.581L110.33 102.606C110.383 102.588 110.441 102.58 110.498 102.584C110.555 102.587 110.611 102.602 110.662 102.627C110.714 102.652 110.759 102.687 110.797 102.73C110.835 102.773 110.864 102.823 110.882 102.877C110.9 102.931 110.908 102.989 110.905 103.046C110.9 103.103 110.885 103.158 110.86 103.21C110.835 103.261 110.8 103.307 110.757 103.345C110.714 103.383 110.663 103.412 110.61 103.43L89.3274 110.405C89.2781 110.422 89.2262 110.43 89.1741 110.427Z" fill="black"/>
<path d="M32.0857 159.561C32.0406 159.561 31.9958 159.553 31.9529 159.539L26.9248 157.87C26.8222 157.829 26.7393 157.751 26.6929 157.651C26.6465 157.551 26.6401 157.437 26.6752 157.332C26.7104 157.227 26.7843 157.14 26.8818 157.087C26.9793 157.035 27.093 157.022 27.1997 157.051L31.5772 158.5L30.759 152.01C30.7454 151.896 30.7775 151.782 30.8484 151.691C30.9192 151.601 31.0231 151.542 31.1372 151.527C31.1937 151.519 31.2511 151.522 31.3062 151.537C31.3612 151.552 31.4127 151.577 31.4578 151.612C31.5028 151.647 31.5406 151.691 31.5687 151.74C31.5968 151.789 31.6146 151.844 31.6214 151.9L32.5218 159.074C32.5308 159.147 32.5214 159.22 32.4943 159.288C32.4672 159.356 32.4235 159.416 32.367 159.462C32.2875 159.526 32.1881 159.562 32.0857 159.561Z" fill="black"/>
<path d="M40.0906 173.146L44.8754 173.593L44.3665 167.103" fill="#4BD657"/>
<path d="M44.8706 174.026H44.8359L40.0477 173.581C39.933 173.571 39.8274 173.514 39.7541 173.425C39.6809 173.337 39.6461 173.222 39.6574 173.107C39.6686 172.993 39.7251 172.887 39.8142 172.814C39.9034 172.74 40.0179 172.705 40.1328 172.716L44.4045 173.114L43.9356 167.136C43.9312 167.079 43.9379 167.022 43.9556 166.968C43.9733 166.913 44.0015 166.863 44.0386 166.82C44.1135 166.732 44.2204 166.677 44.3354 166.668C44.4505 166.658 44.5643 166.695 44.6519 166.769C44.7397 166.844 44.7941 166.951 44.8032 167.065L45.3065 173.557C45.311 173.617 45.3031 173.678 45.283 173.735C45.263 173.791 45.2311 173.844 45.1899 173.888C45.1487 173.932 45.0988 173.967 45.0434 173.991C44.9879 174.014 44.9281 174.027 44.8678 174.026H44.8706Z" fill="black"/>
<path d="M7.60277 162.218C7.49548 162.216 7.39288 162.174 7.31537 162.1C0.128702 155.276 0.074989 147.652 1.29685 142.456C2.1324 138.975 3.62649 135.685 5.69878 132.762C5.76827 132.671 5.87115 132.611 5.985 132.595C6.09886 132.579 6.21423 132.609 6.30574 132.678C6.39725 132.748 6.45739 132.851 6.47295 132.965C6.48851 133.078 6.45839 133.193 6.3889 133.285C4.39509 136.124 2.95175 139.31 2.13422 142.68C0.443193 149.903 2.38732 156.233 7.91095 161.474C7.95224 161.513 7.98554 161.56 8.0087 161.612C8.03188 161.664 8.04459 161.72 8.04613 161.777C8.04767 161.833 8.0379 161.889 8.01756 161.943C7.99723 161.995 7.96663 162.045 7.92752 162.085C7.88528 162.128 7.83487 162.163 7.77902 162.185C7.72317 162.209 7.66305 162.219 7.60277 162.218Z" fill="black"/>
<path d="M72.9529 60.7176C72.8491 60.7172 72.7489 60.6796 72.6705 60.6117C72.5922 60.5439 72.5409 60.4502 72.5258 60.3477C72.5108 60.2452 72.533 60.1406 72.5886 60.0531C72.6442 59.9655 72.7295 59.9006 72.8289 59.8703L93.9145 53.1788C94.0229 53.1491 94.1385 53.1624 94.2371 53.216C94.3357 53.2695 94.4096 53.3591 94.4433 53.466C94.477 53.5729 94.4678 53.6887 94.4178 53.7892C94.3677 53.8895 94.2805 53.9667 94.1747 54.0045L73.0891 60.6959C73.0455 60.7117 72.9993 60.719 72.9529 60.7176Z" fill="black"/>
<path d="M174.184 198.131C174.184 198.131 190.585 210.46 202.904 205.732C215.224 201.003 181.917 179.419 174.184 198.131Z" fill="#07ACEE"/>
<path d="M196.476 207.254C185.616 207.157 174.485 198.898 173.923 198.478L173.653 198.276L173.784 197.965C176.206 192.1 181.439 189.408 188.507 190.382C196.647 191.505 205.499 197.439 206.025 202.142C206.168 203.391 205.769 205.095 203.065 206.134C200.958 206.919 198.723 207.299 196.476 207.254ZM174.719 197.982C176.9 199.538 191.659 209.586 202.749 205.325C204.492 204.653 205.315 203.615 205.159 202.242C204.716 198.35 196.73 192.39 188.388 191.241C184.583 190.719 177.829 190.915 174.719 197.982Z" fill="#1D1D1B"/>
<path d="M114.425 103.152C114.425 103.152 112.57 113.867 105.14 110.879C97.7105 107.891 81.8994 101.352 76.3369 112.274C70.7746 123.195 71.7372 125.589 63.1834 124.572C54.6295 123.554 37.6921 136.653 54.5409 153.943C71.3895 171.233 128.278 115.635 128.278 115.635L127.775 108.915L114.425 103.152Z" fill="#382256"/>
<path d="M63.1134 157.703H63.0702C59.3968 157.67 56.4303 156.489 54.2223 154.238C44.8327 144.603 46.532 136.93 48.3811 133.213C51.4287 127.086 58.52 123.571 63.2344 124.139C69.8786 124.937 70.4181 123.781 73.405 117.367C74.1104 115.851 74.9105 114.135 75.9544 112.089C81.6291 100.949 97.4274 107.314 105.021 110.373L105.309 110.488C106.988 111.164 108.483 111.143 109.785 110.424C112.987 108.639 113.993 103.143 114.003 103.088L114.096 102.546L128.202 108.631L128.741 115.809L128.598 115.953C120.872 123.341 112.774 130.33 104.333 136.893C86.3373 150.776 72.4759 157.786 63.1134 157.703ZM62.2506 124.945C57.8687 124.906 51.8563 128.169 49.1579 133.598C46.143 139.661 48.161 146.775 54.8451 153.634C56.8785 155.719 59.6495 156.797 63.0798 156.837H63.1202C84.3906 157.026 125.073 118.124 127.831 115.475L127.359 109.217L114.742 103.77C114.395 105.28 113.182 109.53 110.202 111.181C108.671 112.034 106.914 112.07 104.994 111.291L104.706 111.176C97.3536 108.223 82.0506 102.05 76.7396 112.48C75.7017 114.514 74.9076 116.217 74.2052 117.73C71.2154 124.147 70.4123 125.874 63.1325 124.998C62.84 124.961 62.5455 124.94 62.2507 124.936L62.2506 124.945Z" fill="#1D1E1B"/>
<path d="M141.615 117.692C211.392 141.184 174.371 173.387 179.395 237.493L68.6696 238.115C68.6696 238.115 53.5025 164.809 117.931 119.715" fill="#195382"/>
<path d="M68.3179 238.551L68.2464 238.207C68.208 238.021 64.4868 219.521 68.7179 195.748C71.2035 181.785 75.8997 168.755 82.6834 157.021C91.1623 142.354 102.939 129.681 117.69 119.361L118.191 120.08C85.0451 143.278 73.4633 174.102 69.5839 195.878C65.6952 217.71 68.5561 235.055 69.0415 237.694L178.926 237.076C177.454 217.576 179.822 201.236 181.91 186.806C184.281 170.437 186.153 157.509 181.491 146.404C176.457 134.453 164.121 125.724 141.487 118.104L141.765 117.283C164.655 124.99 177.146 133.867 182.293 146.064C187.061 157.381 185.172 170.413 182.782 186.915C180.681 201.416 178.3 217.852 179.838 237.462L179.873 237.924L68.3179 238.551Z" fill="#1D1D1B"/>
<path d="M123.828 118.476C123.828 118.476 87.1121 123.463 65.3096 139.843C46.962 153.628 42.3543 160.844 31.6546 179.515C22.7092 195.127 23.1732 219.751 44.3588 223.775C65.5443 227.798 83.1745 229.123 84.3739 217.448L90.8614 216.207L90.5999 189.769L86.803 189.836" fill="#195382"/>
<path d="M67.4051 227.069C60.4264 227.008 52.1662 225.696 44.2754 224.198C36.7308 222.766 31.1656 218.578 28.1787 212.092C23.9976 203.012 25.2456 189.831 31.278 179.298C42.066 160.472 46.7317 153.259 65.0501 139.491C86.6921 123.238 123.401 118.082 123.772 118.039L123.887 118.906C123.519 118.957 87.0297 124.06 65.5711 140.192C47.387 153.851 42.754 161.018 32.0307 179.732C26.1339 190.032 24.8982 202.893 28.9662 211.732C31.8316 217.955 37.182 221.97 44.4497 223.351C58.7223 226.075 74.1756 228.174 80.7116 223.321C82.6327 221.896 83.6922 219.958 83.9577 217.403L83.9901 217.084L90.4366 215.851L90.1838 190.209L86.8236 190.269L86.81 189.403L91.0406 189.334L91.3164 216.569L84.7886 217.815C84.4472 220.435 83.2531 222.519 81.2502 224.019C78.134 226.308 73.213 227.122 67.4051 227.069Z" fill="#1D1D1B"/>
<path d="M86.3718 190.24C86.3718 190.24 78.7567 200.103 83.9627 216.661L90.3273 215.659L90.0221 190.249L86.3718 190.24Z" fill="#0598C6"/>
<path d="M102.355 137.73C103.761 137.743 104.912 136.614 104.927 135.21C104.942 133.804 103.815 132.655 102.409 132.642C101.004 132.628 99.8519 133.757 99.8368 135.162C99.8217 136.567 100.949 137.717 102.355 137.73Z" fill="#51CEF4"/>
<path d="M69.5045 164.898C70.9102 164.91 72.0619 163.781 72.0771 162.377C72.0921 160.972 70.9647 159.822 69.5591 159.809C68.1533 159.796 67.0015 160.924 66.9865 162.33C66.9714 163.734 68.0987 164.885 69.5045 164.898Z" fill="#51CEF4"/>
<path d="M108.959 166.228C110.365 166.241 111.517 165.113 111.532 163.707C111.547 162.302 110.42 161.153 109.014 161.14C107.609 161.127 106.457 162.256 106.442 163.66C106.427 165.066 107.554 166.215 108.959 166.228Z" fill="#51CEF4"/>
<path d="M140.713 154.669C142.119 154.682 143.271 153.553 143.286 152.147C143.301 150.743 142.174 149.594 140.768 149.581C139.362 149.567 138.211 150.696 138.196 152.101C138.181 153.506 139.308 154.656 140.713 154.669Z" fill="#51CEF4"/>
<path d="M45.2175 210.271C46.6233 210.284 47.775 209.155 47.7901 207.75C47.8052 206.345 46.6779 205.196 45.2722 205.183C43.8664 205.169 42.7147 206.298 42.6996 207.703C42.6845 209.108 43.8118 210.258 45.2175 210.271Z" fill="#51CEF4"/>
<path d="M66.6988 193.613C68.1046 193.627 69.2567 192.498 69.2717 191.092C69.2868 189.688 68.1592 188.538 66.7534 188.525C65.3477 188.512 64.196 189.641 64.1808 191.046C64.1657 192.451 65.2931 193.6 66.6988 193.613Z" fill="#51CEF4"/>
<path d="M71.4393 218.968C72.8451 218.981 73.9971 217.852 74.0122 216.447C74.0273 215.042 72.8997 213.892 71.4939 213.879C70.0882 213.866 68.9365 214.995 68.9213 216.401C68.9062 217.805 70.0336 218.954 71.4393 218.968Z" fill="#51CEF4"/>
<path d="M169.383 232.121C170.789 232.134 171.941 231.006 171.956 229.6C171.971 228.195 170.843 227.045 169.438 227.033C168.032 227.02 166.88 228.149 166.865 229.553C166.85 230.959 167.977 232.108 169.383 232.121Z" fill="#51CEF4"/>
<path d="M36.638 191.287L36.2791 190.496C36.4594 190.415 54.4597 182.314 67.579 181.342C80.8749 180.36 87.3813 189.586 87.4469 189.679L86.7293 190.173C86.6695 190.083 80.4225 181.262 67.6421 182.207C54.6705 183.17 36.8154 191.205 36.638 191.287Z" fill="#1D1D1B"/>
<path d="M80.7593 158.754C80.7593 158.754 72.3181 170.309 71.8123 181.835L80.7593 158.754Z" fill="#07ACEE"/>
<path d="M72.241 181.853L71.3752 181.817C71.8813 170.286 80.3224 158.614 80.4074 158.499L81.1063 159.007C81.0271 159.122 72.7498 170.593 72.241 181.853Z" fill="#1D1D1B"/>
<path d="M121.322 119.174C121.322 119.174 115.082 127.15 124.651 129.849C131.531 131.792 133.463 127.111 133.463 127.111C133.463 127.111 137.151 131.767 144.423 128.46C149.151 126.313 145.776 119.707 145.776 119.707C135.647 117.051 131.707 116.912 121.322 119.174Z" fill="white"/>
<path d="M127.671 130.751C126.609 130.729 125.555 130.566 124.537 130.267C121.595 129.438 119.782 128.027 119.144 126.073C118.048 122.716 120.863 119.063 120.982 118.909L121.079 118.784L121.233 118.751C131.614 116.487 135.533 116.567 145.887 119.286L146.074 119.336L146.166 119.508C146.244 119.665 148.091 123.335 147.078 126.23C146.873 126.815 146.547 127.352 146.122 127.804C145.695 128.256 145.18 128.614 144.606 128.854C138.517 131.625 134.768 128.954 133.559 127.828C132.917 128.817 131.195 130.783 127.671 130.751ZM121.578 119.564C121.119 120.201 119.118 123.201 119.968 125.806C120.529 127.467 122.13 128.688 124.775 129.434C125.729 129.715 126.717 129.867 127.712 129.888C131.762 129.924 133.004 127.09 133.066 126.946L133.362 126.266L133.82 126.848C133.962 127.025 137.399 131.19 144.259 128.071C144.724 127.878 145.144 127.589 145.491 127.224C145.836 126.859 146.102 126.425 146.27 125.951C147.047 123.728 145.821 120.811 145.484 120.079C135.483 117.469 131.601 117.387 121.578 119.564Z" fill="#1D1E1B"/>
<path d="M124.709 102.897C124.709 102.897 125.883 114.082 121.946 119.511C121.946 119.511 134.017 132.126 143.249 119.069C143.249 119.069 134.685 105.88 136.384 102.082C138.084 98.2845 124.709 102.897 124.709 102.897Z" fill="#FFCDB2"/>
<path d="M133.296 125.425C127.022 125.371 121.859 120.05 121.633 119.815L121.382 119.553L121.596 119.266C125.39 114.037 124.29 103.063 124.277 102.951L124.243 102.61L124.569 102.497C126.309 101.894 135.082 98.9855 136.675 100.722C136.92 100.99 137.138 101.474 136.781 102.267C135.465 105.206 141.257 115.227 143.613 118.84L143.772 119.088L143.602 119.326C140.943 123.087 137.788 125.131 134.218 125.401C133.909 125.418 133.602 125.427 133.296 125.425ZM122.509 119.462C123.652 120.56 128.642 124.949 134.159 124.532C137.381 124.285 140.251 122.445 142.724 119.061C141.318 116.864 134.32 105.634 135.985 101.908C136.115 101.621 136.129 101.413 136.03 101.302C135.173 100.357 129.269 101.822 125.167 103.198C125.338 105.13 125.917 114.362 122.509 119.462Z" fill="#1D1D1B"/>
<path d="M126.781 74.2025C133.471 74.26 138.956 68.8817 139.033 62.1898C139.11 55.498 133.749 50.0264 127.059 49.969C120.369 49.9115 114.884 55.2899 114.807 61.9817C114.73 68.6736 120.091 74.145 126.781 74.2025Z" fill="#382256"/>
<path d="M126.753 74.635C123.637 74.5992 120.65 73.4083 118.371 71.294C116.091 69.1797 114.682 66.2926 114.417 63.1933C114.208 60.7251 114.737 58.2485 115.937 56.0764C117.137 53.9043 118.954 52.1343 121.158 50.99C123.362 49.8458 125.853 49.3787 128.319 49.6479C130.785 49.917 133.112 50.9102 135.009 52.502C136.906 54.0938 138.286 56.2126 138.974 58.5909C139.663 60.9691 139.63 63.4998 138.878 65.8633C138.128 68.2267 136.692 70.3167 134.754 71.8691C132.816 73.4215 130.463 74.3667 127.991 74.5851C127.576 74.6219 127.163 74.6386 126.753 74.635ZM127.075 50.3902C126.694 50.3869 126.308 50.4038 125.917 50.438C123.615 50.647 121.423 51.5321 119.619 52.9818C117.816 54.4316 116.481 56.3808 115.784 58.584C115.086 60.7872 115.057 63.1454 115.7 65.3614C116.341 67.5774 117.628 69.5518 119.394 71.0357C120.565 72.0229 121.921 72.7674 123.383 73.226C124.846 73.6845 126.386 73.848 127.913 73.7068C130.906 73.4423 133.685 72.0393 135.675 69.7883C137.667 67.5372 138.717 64.6103 138.608 61.6136C138.5 58.6169 137.242 55.7797 135.094 53.6895C132.947 51.5992 130.074 50.4158 127.071 50.3844L127.075 50.3902Z" fill="#1D1E1B"/>
<path d="M139.453 65.9187C133.767 57.5776 120.337 60.6787 117.244 64.8617C109.564 75.2188 100.781 71.4361 100.179 81.8569C99.8787 87.0889 104.634 88.6484 103.361 98.2983C102.705 103.276 111.625 110.007 119.087 109.345C126.547 108.681 143.689 114.031 152.217 104.169C156.07 99.7124 162.113 86.353 154.362 76.5333C146.525 66.5973 141.921 69.5346 139.453 65.9187Z" fill="#382256"/>
<path d="M134.907 110.617C131.996 110.593 129.128 110.331 126.58 110.099C123.605 109.828 121.041 109.593 119.122 109.763C113.899 110.224 108.453 107.235 105.597 104.262C103.64 102.225 102.693 100.08 102.937 98.2313C103.674 92.645 102.359 89.8532 101.196 87.4007C100.389 85.6844 99.6241 84.0639 99.754 81.8188C100.112 75.7903 103.125 74.2917 106.951 72.393C110.039 70.8604 113.54 69.1234 116.903 64.5905C118.788 62.0486 123.793 60.1889 128.598 60.2302L128.766 60.2316C133.556 60.316 137.48 62.2495 139.817 65.6737C140.67 66.9371 141.822 67.3251 143.426 67.8673C146.11 68.7738 149.785 70.0181 154.706 76.2506C162.643 86.2972 156.549 99.8149 152.553 104.438C148.108 109.568 141.367 110.673 134.907 110.617ZM120.798 108.84C122.483 108.854 124.462 109.035 126.659 109.237C134.714 109.972 145.744 110.98 151.891 103.872C153.836 101.619 156.238 97.156 157.229 92.2649C158.06 88.1028 158.179 82.0376 154.032 76.7877C149.267 70.7586 145.731 69.5617 143.139 68.6877C141.451 68.116 140.118 67.6656 139.095 66.1641C136.919 62.9694 133.243 61.1766 128.745 61.0976L128.585 61.0962C123.599 61.0534 119.1 63.0878 117.602 65.1047C114.116 69.8041 110.36 71.6831 107.339 73.1672C103.626 75.0091 100.941 76.3431 100.621 81.8666C100.505 83.8867 101.191 85.3363 101.984 87.0292C103.198 89.5949 104.57 92.5025 103.8 98.3398C103.591 99.923 104.454 101.81 106.228 103.662C108.942 106.491 114.117 109.336 119.056 108.9C119.589 108.852 120.174 108.835 120.809 108.84H120.798Z" fill="#1D1E1B"/>
<path d="M133.505 86.7788C127.44 88.3702 119.064 86.0718 117.745 88.3243C116.426 90.5768 117.633 93.4621 120.984 94.0326C124.335 94.6033 127.622 94.3462 134.338 93.4981C141.056 92.6499 147.571 91.3199 146.64 87.7518C145.71 84.1837 142.429 84.435 133.505 86.7788Z" fill="#FFB49F"/>
<path d="M128.429 69.3889C126.872 79.1531 117.612 84.3866 112.405 85.3317C111.503 88.3484 112.43 92.2264 112.723 95.6488C113.801 108.22 121.439 116.708 133.432 114.813C145.139 112.966 150.748 105.678 149.421 91.8429C149.109 88.5762 148.958 85.3225 147.663 82.5929C137.655 83.4505 128.429 69.3889 128.429 69.3889Z" fill="#FFCDB2"/>
<path d="M130.029 115.506C126.24 115.473 122.818 114.335 120.028 112.144C115.655 108.727 112.911 102.883 112.292 95.6891C112.218 94.84 112.104 93.9386 111.992 93.069C111.645 90.3591 111.287 87.5595 111.988 85.2107L112.065 84.9544L112.329 84.9077C117.96 83.8854 126.562 78.3721 128.002 69.3228L128.179 68.2161L128.792 69.1507C128.88 69.2842 137.425 82.1306 146.71 82.2104C147 82.2128 147.321 82.2011 147.628 82.1749L147.916 82.1486L148.046 82.418C149.22 84.8812 149.471 87.674 149.738 90.6314C149.771 91.0213 149.807 91.4112 149.843 91.8011C150.506 98.7099 149.435 104.184 146.657 108.073C143.942 111.879 139.511 114.291 133.49 115.241C132.346 115.424 131.187 115.513 130.029 115.506ZM112.744 85.7077C112.191 87.8356 112.523 90.4358 112.846 92.9551C112.958 93.8363 113.074 94.7463 113.148 95.6128C113.744 102.567 116.376 108.197 120.557 111.462C123.994 114.152 128.429 115.163 133.359 114.386C145.146 112.525 150.256 105.166 148.983 91.8861L148.875 90.7135C148.618 87.9437 148.392 85.3214 147.389 83.0589C147.152 83.0569 146.912 83.0779 146.678 83.0758C138.282 83.0037 130.791 73.4649 128.656 70.4856C126.652 79.6658 118.062 84.6308 112.75 85.7078L112.744 85.7077Z" fill="#1D1D1B"/>
<path d="M132.339 87.6333C125.123 89.5931 115.105 86.9562 113.556 89.6607C112.007 92.365 113.487 95.7902 117.486 96.4302C121.484 97.0702 125.408 96.7293 133.41 95.6381C141.413 94.5469 149.169 92.8869 148.021 88.6405C146.873 84.394 142.939 84.7348 132.339 87.6333Z" fill="#FFB49F"/>
<path d="M131.07 99.0094C130.962 99.0087 130.859 98.9678 130.78 98.8944C130.702 98.8211 130.653 98.7208 130.646 98.6133L129.798 88.7508C129.792 88.6939 129.799 88.6367 129.816 88.5823C129.833 88.5278 129.861 88.4773 129.898 88.4336C129.934 88.39 129.979 88.3538 130.03 88.3275C130.081 88.3011 130.136 88.285 130.192 88.28C130.249 88.275 130.306 88.2812 130.361 88.2984C130.414 88.3155 130.465 88.3433 130.508 88.38C130.552 88.4166 130.588 88.4616 130.614 88.5122C130.64 88.5628 130.657 88.618 130.661 88.6749L131.507 98.5374C131.511 98.5942 131.505 98.6512 131.489 98.7055C131.472 98.7598 131.444 98.8102 131.407 98.8538C131.37 98.8974 131.326 98.9334 131.276 98.9596C131.225 98.9859 131.17 99.0019 131.113 99.0068L131.07 99.0094Z" fill="black"/>
<path d="M118.231 59.5781C118.153 59.5773 118.077 59.5649 118.002 59.5416C117.822 59.4794 117.673 59.3479 117.589 59.1762C117.505 59.0043 117.493 58.8063 117.556 58.6254C117.634 58.3923 119.601 52.8996 126.372 51.8487C126.468 51.8299 126.566 51.8308 126.66 51.8509C126.756 51.8711 126.846 51.9102 126.925 51.9661C127.005 52.0218 127.073 52.0931 127.124 52.1757C127.175 52.2581 127.209 52.3501 127.223 52.4462C127.238 52.5421 127.234 52.6402 127.209 52.7343C127.186 52.8286 127.143 52.9169 127.083 52.9942C127.024 53.0715 126.95 53.136 126.865 53.1841C126.78 53.2321 126.687 53.2625 126.59 53.2737C120.706 54.1883 118.991 58.8951 118.922 59.0937C118.871 59.236 118.778 59.3593 118.654 59.4462C118.53 59.533 118.382 59.5792 118.231 59.5781Z" fill="white"/>
<path d="M117.605 87.7767C117.515 87.7762 117.426 87.747 117.354 87.6936C117.308 87.6604 117.269 87.6184 117.239 87.5699C117.209 87.5215 117.19 87.4676 117.181 87.4114C117.171 87.3552 117.174 87.2977 117.187 87.2424C117.201 87.1871 117.226 87.135 117.26 87.0891C117.419 86.8739 121.174 81.8618 126.07 83.0519C126.182 83.0793 126.278 83.15 126.337 83.2483C126.397 83.3466 126.415 83.4645 126.388 83.5761C126.36 83.6877 126.289 83.7838 126.19 83.8433C126.092 83.9028 125.973 83.9209 125.861 83.8935C121.534 82.8412 117.995 87.5549 117.96 87.6008C117.919 87.6564 117.866 87.7015 117.804 87.7321C117.742 87.7628 117.674 87.7781 117.605 87.7767Z" fill="black"/>
<path d="M140.35 83.7561C140.251 83.7548 140.155 83.7203 140.079 83.6582C136.24 80.4859 132.754 82.436 132.607 82.5302C132.508 82.5884 132.39 82.6046 132.278 82.5754C132.167 82.5462 132.071 82.474 132.013 82.3745C131.956 82.275 131.94 82.1565 131.969 82.0451C131.998 81.9336 132.071 81.8383 132.17 81.78C132.211 81.7573 136.315 79.4222 140.633 82.9892C140.703 83.0472 140.753 83.1258 140.775 83.2136C140.798 83.3014 140.793 83.3941 140.759 83.4787C140.726 83.5633 140.668 83.6356 140.592 83.6853C140.516 83.7351 140.427 83.7597 140.335 83.756L140.35 83.7561Z" fill="black"/>
<path d="M127.677 94.5186C127.615 94.5185 127.555 94.5052 127.499 94.4798C127.443 94.4543 127.394 94.4173 127.354 94.371C125.136 91.8281 120.725 94.254 120.681 94.2768C120.581 94.3335 120.463 94.348 120.352 94.3172C120.241 94.2863 120.146 94.2126 120.09 94.1124C120.033 94.0121 120.019 93.8934 120.05 93.7824C120.081 93.6715 120.155 93.5774 120.256 93.5207C120.463 93.4069 125.328 90.7244 128.008 93.7982C128.046 93.8412 128.074 93.8912 128.092 93.9454C128.111 93.9995 128.117 94.0567 128.114 94.1136C128.109 94.1705 128.094 94.2262 128.069 94.2772C128.043 94.3283 128.007 94.3738 127.964 94.4112C127.884 94.4819 127.782 94.5203 127.677 94.5186Z" fill="black"/>
<path d="M133.806 93.4832C133.69 93.4817 133.581 93.435 133.501 93.3532C133.46 93.3128 133.429 93.2648 133.407 93.212C133.386 93.1592 133.375 93.1027 133.376 93.0456C133.376 92.9886 133.389 92.9322 133.41 92.8799C133.433 92.8275 133.466 92.78 133.507 92.7403C133.545 92.7031 137.257 89.1423 141.841 91.155C141.947 91.2011 142.03 91.2873 142.072 91.3946C142.112 91.5018 142.11 91.6212 142.064 91.7266C142.018 91.832 141.931 91.9147 141.824 91.9565C141.716 91.9984 141.597 91.9961 141.491 91.9499C137.46 90.1792 134.243 93.2268 134.114 93.3587C134.032 93.4391 133.921 93.4838 133.806 93.4832Z" fill="black"/>
<path d="M168.284 195.66C162.465 184.104 153.087 165.335 154.603 155.841C156.118 146.346 162.967 145.66 162.967 145.66L162.663 138.379L187.24 131.85L188.515 136.595C188.515 136.595 204.475 135.947 206.378 158.52C208.306 181.421 222.821 211.988 190.133 215.953C180.398 217.135 171.276 201.6 168.284 195.66Z" fill="#195382"/>
<path d="M189.004 216.447C178.759 216.356 169.671 199.376 167.898 195.856C162.183 184.508 152.627 165.516 154.181 155.773C155.517 147.419 160.982 145.639 162.522 145.301L162.235 138.398C162.232 138.299 162.262 138.203 162.32 138.124C162.379 138.044 162.462 137.987 162.558 137.963L187.136 131.431C187.247 131.402 187.364 131.418 187.463 131.476C187.562 131.532 187.634 131.628 187.665 131.738L188.855 136.163C191.74 136.291 194.54 137.176 196.971 138.727C200.912 141.206 205.819 146.644 206.815 158.483C207.215 163.246 208.184 168.454 209.122 173.487C211.5 186.279 213.963 199.493 207.784 207.906C204.335 212.591 198.582 215.364 190.198 216.383C189.802 216.431 189.403 216.452 189.004 216.447ZM168.674 195.464C170.469 199.029 179.946 216.754 190.089 215.522C198.225 214.535 203.78 211.877 207.078 207.394C213.035 199.3 210.611 186.26 208.262 173.653C207.324 168.599 206.353 163.369 205.944 158.561C205.177 149.497 201.93 142.903 196.543 139.49C194.151 137.951 191.379 137.101 188.53 137.033C188.432 137.038 188.336 137.007 188.258 136.95C188.179 136.892 188.123 136.809 188.097 136.716L186.935 132.378L163.11 138.709L163.397 145.634C163.404 145.745 163.366 145.854 163.294 145.938C163.221 146.021 163.119 146.074 163.008 146.084C162.742 146.114 156.473 146.874 155.032 155.902C153.52 165.373 163.003 184.21 168.674 195.464Z" fill="#1D1D1B"/>
<path d="M163.453 146.07C163.453 146.07 179.3 149.425 188.057 136.942L186.93 132.23L163.223 138.769L163.453 146.07Z" fill="#71B2E8"/>
<path d="M188.726 206.977C190.076 206.57 190.84 205.154 190.435 203.813C190.028 202.472 188.603 201.716 187.253 202.123C185.903 202.53 185.139 203.947 185.546 205.288C185.952 206.628 187.376 207.385 188.726 206.977Z" fill="#51CEF4"/>
<path d="M196.59 182.119C197.942 181.712 198.706 180.296 198.299 178.954C197.892 177.614 196.469 176.857 195.119 177.265C193.769 177.672 193.003 179.088 193.41 180.43C193.817 181.77 195.24 182.527 196.59 182.119Z" fill="#51CEF4"/>
<path d="M193.536 156.447C194.886 156.04 195.652 154.624 195.245 153.283C194.838 151.943 193.413 151.186 192.063 151.593C190.713 152.001 189.949 153.417 190.355 154.758C190.762 156.098 192.186 156.855 193.536 156.447Z" fill="#51CEF4"/>
<path d="M169.051 163.978C170.402 163.57 171.167 162.153 170.76 160.813C170.353 159.472 168.929 158.715 167.579 159.122C166.229 159.53 165.464 160.947 165.871 162.287C166.277 163.628 167.701 164.385 169.051 163.978Z" fill="#51CEF4"/>
<path d="M133.156 106.834C132.188 106.83 131.23 106.625 130.347 106.231C130.251 106.175 130.179 106.085 130.147 105.979C130.116 105.872 130.127 105.757 130.178 105.659C130.229 105.56 130.315 105.484 130.421 105.447C130.526 105.41 130.642 105.415 130.743 105.461C130.939 105.558 135.412 107.738 138.355 102.581C138.381 102.528 138.418 102.481 138.463 102.442C138.508 102.404 138.561 102.375 138.617 102.357C138.674 102.34 138.733 102.334 138.792 102.34C138.852 102.347 138.909 102.365 138.959 102.394C139.011 102.423 139.056 102.462 139.092 102.509C139.127 102.557 139.153 102.61 139.167 102.668C139.181 102.725 139.183 102.785 139.173 102.843C139.164 102.901 139.141 102.957 139.109 103.006C137.322 106.131 134.973 106.851 133.156 106.834Z" fill="black"/>
<path d="M183.903 132.535C183.903 132.535 182.095 129.4 182.747 127.585C183.397 125.77 188.154 118.819 189.333 113.767C190.479 108.855 186.81 107.141 181.476 113.431C181.476 113.431 183.17 105.851 178.031 106.477C178.031 106.477 177.569 102.632 174.246 98.4854C171.397 94.926 167.735 98.4294 169.471 102.109C170.927 105.183 171.508 106.412 171.664 107.695C171.664 107.695 166.767 108.518 169.8 112.041C169.8 112.041 170.628 115.407 168.071 115.724C165.513 116.039 168.479 108.302 166.887 105.902C165.293 103.502 161.119 104.877 159.852 112.403C158.584 119.929 157.476 123.322 159.803 128.239C161.54 131.908 163.478 138.547 163.478 138.547L183.903 132.535Z" fill="#FFCDB2"/>
<path d="M163.473 138.979C163.402 138.979 163.332 138.962 163.268 138.929C163.219 138.902 163.175 138.864 163.139 138.82C163.103 138.775 163.077 138.725 163.061 138.67C163.041 138.604 161.114 132.016 159.423 128.424C157.349 124.052 157.913 120.908 158.933 115.192C159.093 114.304 159.26 113.359 159.434 112.334C160.311 107.118 162.559 104.858 164.375 104.455C164.922 104.334 165.491 104.385 166.006 104.601C166.522 104.818 166.956 105.188 167.251 105.663C168.068 106.899 167.829 109.165 167.598 111.353C167.429 112.962 167.238 114.784 167.687 115.223C167.718 115.255 167.795 115.328 168.018 115.301C168.239 115.288 168.453 115.226 168.647 115.119C168.841 115.013 169.008 114.864 169.137 114.685C169.628 113.968 169.509 112.764 169.399 112.249C168.484 111.15 168.179 110.154 168.497 109.286C168.933 108.093 170.43 107.572 171.171 107.367C170.956 106.26 170.35 104.982 169.08 102.302C167.991 100.001 168.842 97.8591 170.21 97.0052C171.304 96.3191 173.03 96.279 174.587 98.22C177.353 101.675 178.18 104.888 178.395 106.018C179.519 105.964 180.414 106.298 181.057 107.008C182.238 108.31 182.26 110.584 182.116 112.072C184.619 109.47 186.972 108.394 188.548 109.181C189.838 109.827 190.289 111.577 189.757 113.864C188.944 117.351 186.434 121.765 184.771 124.685C184.173 125.668 183.633 126.686 183.153 127.73C182.676 129.065 183.803 131.488 184.279 132.319C184.312 132.376 184.332 132.439 184.336 132.505C184.341 132.57 184.33 132.637 184.307 132.698C184.281 132.76 184.241 132.815 184.191 132.86C184.14 132.904 184.08 132.935 184.015 132.952L163.586 138.963C163.549 138.974 163.512 138.979 163.473 138.979ZM164.984 105.256C164.836 105.255 164.689 105.27 164.544 105.302C163.096 105.615 161.085 107.681 160.279 112.48C160.107 113.508 159.938 114.459 159.777 115.36C158.79 120.899 158.234 123.95 160.21 128.061C161.713 131.231 163.329 136.496 163.785 138.019L183.285 132.282C182.789 131.291 181.797 128.999 182.353 127.449C182.573 126.83 183.216 125.699 184.033 124.266C185.67 121.395 188.14 117.045 188.927 113.677C189.356 111.834 189.07 110.413 188.173 109.966C187.145 109.449 184.863 110.125 181.82 113.72C181.757 113.794 181.671 113.844 181.577 113.865C181.482 113.884 181.384 113.871 181.297 113.828C181.211 113.785 181.141 113.715 181.099 113.628C181.058 113.541 181.046 113.442 181.067 113.348C181.067 113.307 181.952 109.275 180.428 107.6C179.897 107.018 179.135 106.795 178.099 106.922C178.042 106.929 177.985 106.925 177.93 106.91C177.875 106.895 177.825 106.869 177.779 106.834C177.735 106.799 177.698 106.755 177.67 106.706C177.642 106.656 177.624 106.602 177.618 106.545C177.618 106.508 177.121 102.761 173.922 98.7713C172.903 97.4986 171.69 97.116 170.684 97.748C169.677 98.3799 169.004 100.091 169.878 101.937C171.34 105.025 171.947 106.303 172.11 107.655C172.123 107.766 172.093 107.877 172.025 107.966C171.958 108.055 171.859 108.115 171.75 108.133C171.188 108.23 169.657 108.678 169.326 109.59C169.117 110.166 169.392 110.898 170.144 111.776C170.187 111.827 170.219 111.888 170.235 111.953C170.254 112.032 170.717 113.942 169.866 115.181C169.667 115.463 169.41 115.697 169.112 115.868C168.813 116.039 168.481 116.141 168.138 116.169C167.951 116.201 167.759 116.189 167.578 116.133C167.396 116.079 167.23 115.981 167.093 115.85C166.347 115.12 166.544 113.338 166.752 111.274C166.957 109.331 167.187 107.128 166.54 106.15C166.379 105.881 166.151 105.657 165.879 105.501C165.607 105.345 165.299 105.261 164.984 105.256Z" fill="#1D1D1B"/>
<path d="M170.014 112.237C170.014 112.237 171.989 114.18 177.888 112.574L170.014 112.237Z" fill="#FFCDB2"/>
<path d="M173.587 113.643C170.853 113.619 169.782 112.611 169.719 112.55C169.636 112.47 169.589 112.359 169.587 112.244C169.586 112.129 169.629 112.016 169.709 111.934C169.79 111.85 169.9 111.803 170.015 111.801C170.13 111.799 170.242 111.843 170.324 111.923C170.362 111.958 172.285 113.646 177.783 112.156C177.894 112.126 178.013 112.141 178.112 112.199C178.212 112.255 178.285 112.351 178.314 112.462C178.345 112.574 178.328 112.692 178.271 112.793C178.213 112.892 178.119 112.966 178.008 112.996C176.569 113.411 175.083 113.629 173.587 113.643Z" fill="#1D1D1B"/>
<path d="M171.644 107.715C173.743 107.173 175.875 106.764 178.025 106.491L171.644 107.715Z" fill="#FFCDB2"/>
<path d="M171.64 108.148C171.524 108.162 171.408 108.13 171.317 108.059C171.225 107.988 171.166 107.883 171.152 107.768C171.138 107.652 171.17 107.536 171.242 107.444C171.313 107.353 171.419 107.293 171.534 107.279C173.653 106.734 175.803 106.322 177.972 106.046C178.087 106.032 178.202 106.064 178.294 106.136C178.385 106.208 178.444 106.313 178.458 106.428C178.472 106.543 178.439 106.659 178.367 106.751C178.295 106.842 178.189 106.901 178.074 106.915C175.946 107.187 173.835 107.59 171.756 108.123C171.718 108.138 171.679 108.145 171.64 108.148Z" fill="#1D1D1B"/>
<path d="M181.484 113.442C180.731 114.403 180.317 114.454 178.523 117.71L181.484 113.442Z" fill="#FFCDB2"/>
<path d="M178.519 118.138C178.447 118.137 178.377 118.119 178.314 118.084C178.216 118.029 178.143 117.938 178.111 117.829C178.079 117.722 178.09 117.605 178.142 117.506C179.517 114.996 180.117 114.348 180.65 113.752C180.813 113.57 180.971 113.401 181.144 113.18C181.217 113.096 181.319 113.043 181.43 113.032C181.54 113.021 181.651 113.053 181.738 113.121C181.826 113.189 181.884 113.289 181.901 113.398C181.917 113.508 181.89 113.62 181.825 113.71C181.632 113.957 181.457 114.149 181.29 114.332C180.766 114.905 180.224 115.501 178.902 117.919C178.865 117.986 178.809 118.043 178.741 118.081C178.673 118.119 178.596 118.139 178.519 118.138Z" fill="#1D1D1B"/>
<path d="M171.161 122.062H171.097C170.984 122.042 170.883 121.98 170.815 121.887C170.747 121.795 170.719 121.679 170.735 121.565C171.183 118.77 167.185 115.978 167.145 115.948C167.051 115.882 166.988 115.783 166.967 115.67C166.947 115.557 166.972 115.442 167.036 115.347C167.069 115.3 167.11 115.261 167.158 115.229C167.205 115.198 167.259 115.177 167.315 115.166C167.371 115.157 167.428 115.158 167.484 115.169C167.539 115.181 167.592 115.205 167.638 115.237C167.822 115.362 172.124 118.375 171.592 121.699C171.576 121.801 171.524 121.895 171.445 121.961C171.365 122.027 171.265 122.064 171.161 122.062Z" fill="#1D1D1B"/>
<path d="M175.561 113.04C174.994 113.816 174.583 114.694 174.351 115.625L175.561 113.04Z" fill="#FFCDB2"/>
<path d="M174.347 116.047C174.319 116.05 174.291 116.05 174.264 116.046C174.151 116.023 174.053 115.956 173.99 115.861C173.926 115.765 173.904 115.649 173.926 115.536C174.172 114.545 174.61 113.612 175.214 112.788C175.283 112.697 175.386 112.636 175.499 112.62C175.613 112.603 175.73 112.633 175.821 112.701C175.913 112.77 175.974 112.873 175.989 112.987C176.005 113.1 175.976 113.216 175.906 113.308C175.381 114.03 174.997 114.843 174.776 115.708C174.754 115.804 174.699 115.891 174.622 115.952C174.543 116.014 174.447 116.047 174.347 116.047Z" fill="#1D1D1B"/>
<path d="M171.535 109.896C171.344 109.911 171.153 109.848 171.008 109.722C170.862 109.597 170.772 109.419 170.758 109.227C170.744 109.035 170.808 108.845 170.933 108.7C171.059 108.554 171.238 108.464 171.43 108.45L178.612 107.269C178.801 107.238 178.995 107.283 179.151 107.395C179.306 107.507 179.412 107.677 179.442 107.865C179.473 108.055 179.428 108.249 179.316 108.405C179.203 108.561 179.034 108.666 178.844 108.697L171.66 109.877C171.619 109.886 171.577 109.893 171.535 109.896Z" fill="white"/>
<path d="M54.1524 152.676C54.0114 152.674 53.8742 152.63 53.7575 152.551C53.6408 152.472 53.5499 152.362 53.4954 152.232C53.4409 152.102 53.4254 151.96 53.4509 151.821C53.4764 151.683 53.5417 151.554 53.6388 151.453C70.0711 134.461 93.8026 127.292 94.0406 127.234C94.1325 127.204 94.2296 127.193 94.3261 127.201C94.4224 127.209 94.516 127.237 94.6015 127.282C94.687 127.327 94.7627 127.388 94.8239 127.463C94.8851 127.537 94.9307 127.623 94.958 127.716C94.9853 127.808 94.9937 127.906 94.9826 128.001C94.9716 128.096 94.9413 128.19 94.8937 128.273C94.8463 128.358 94.7823 128.431 94.7058 128.491C94.6292 128.55 94.5417 128.593 94.4482 128.617C94.2159 128.687 70.8416 135.745 54.6815 152.455C54.6128 152.526 54.5304 152.581 54.4396 152.619C54.3486 152.658 54.2508 152.676 54.1524 152.676Z" fill="white"/>
<path d="M204.321 162.363C204.136 162.361 203.96 162.288 203.826 162.158C203.694 162.03 203.616 161.855 203.609 161.671C203.258 152.422 200.583 147.287 198.389 144.607C196.044 141.731 193.747 141 193.725 140.991C193.542 140.936 193.388 140.81 193.297 140.642C193.207 140.474 193.187 140.276 193.243 140.093C193.298 139.91 193.424 139.756 193.593 139.665C193.762 139.575 193.96 139.556 194.144 139.611C194.562 139.736 204.343 142.877 205.052 161.629C205.056 161.723 205.04 161.817 205.007 161.906C204.975 161.995 204.924 162.078 204.86 162.147C204.795 162.216 204.717 162.273 204.631 162.313C204.544 162.352 204.45 162.374 204.356 162.378L204.321 162.363Z" fill="white"/>
<path d="M51.2872 188.266C51.1233 188.265 50.9651 188.209 50.8381 188.105C50.711 188.002 50.623 187.859 50.588 187.698C50.5531 187.538 50.5732 187.371 50.6457 187.224C50.718 187.077 50.8383 186.96 50.9864 186.89C51.6963 186.554 68.4891 178.814 80.8336 185.612C81.0015 185.704 81.1255 185.861 81.1783 186.045C81.2312 186.229 81.2085 186.427 81.1154 186.595C81.0222 186.763 80.866 186.888 80.6814 186.94C80.4969 186.994 80.2988 186.971 80.1309 186.878C68.4281 180.434 51.7693 188.117 51.6005 188.197C51.5026 188.244 51.3955 188.267 51.2872 188.266Z" fill="white"/>
<path d="M32.0857 223.696C32.0075 223.695 31.9311 223.674 31.864 223.634C23.6741 218.622 21.3393 210.561 20.8215 204.689C20.4775 200.794 20.7614 196.868 21.6627 193.061C21.674 193.003 21.6973 192.947 21.731 192.899C21.7646 192.85 21.8078 192.808 21.8582 192.777C21.9086 192.745 21.9649 192.724 22.0236 192.716C22.0823 192.706 22.1425 192.709 22.1999 192.724C22.2573 192.74 22.311 192.767 22.3576 192.804C22.4041 192.84 22.4424 192.886 22.4704 192.939C22.4984 192.991 22.5154 193.048 22.5203 193.107C22.525 193.166 22.5176 193.226 22.4983 193.282C21.6371 197.002 21.3627 200.833 21.6858 204.636C22.4208 212.884 25.9987 219.028 32.3168 222.9C32.3658 222.929 32.4082 222.967 32.442 223.014C32.4758 223.059 32.5 223.111 32.5135 223.166C32.5268 223.222 32.5292 223.278 32.5202 223.335C32.511 223.391 32.4908 223.444 32.4606 223.493C32.421 223.556 32.3658 223.609 32.3001 223.644C32.2344 223.679 32.1605 223.698 32.0857 223.696Z" fill="#1D1D1B"/>
<path d="M187.405 124.382C187.324 124.381 187.247 124.357 187.179 124.313C187.112 124.27 187.057 124.21 187.023 124.138C186.987 124.067 186.973 123.986 186.981 123.907C186.989 123.827 187.018 123.751 187.065 123.687C192.224 116.863 191.496 111.113 191.489 111.055C191.481 110.998 191.484 110.94 191.498 110.884C191.513 110.829 191.538 110.776 191.573 110.731C191.608 110.685 191.651 110.646 191.701 110.617C191.75 110.587 191.805 110.569 191.862 110.561C191.919 110.553 191.977 110.556 192.033 110.57C192.088 110.584 192.141 110.61 192.187 110.644C192.233 110.679 192.271 110.722 192.3 110.772C192.329 110.821 192.349 110.876 192.356 110.933C192.392 111.181 193.157 117.077 187.768 124.209C187.726 124.266 187.671 124.311 187.608 124.341C187.544 124.371 187.475 124.385 187.405 124.382Z" fill="#1D1D1B"/>
<path d="M205.944 214.947C205.867 214.946 205.792 214.925 205.726 214.885C205.661 214.845 205.606 214.79 205.568 214.722C205.517 214.622 205.508 214.507 205.54 214.399C205.573 214.291 205.647 214.201 205.744 214.146C212.794 210.331 216.113 203.153 215.604 192.818C215.303 187.858 214.318 182.964 212.675 178.276C212.652 178.222 212.639 178.163 212.639 178.105C212.638 178.047 212.65 177.988 212.672 177.934C212.695 177.879 212.728 177.83 212.77 177.789C212.813 177.748 212.863 177.716 212.918 177.696C212.973 177.675 213.032 177.665 213.091 177.668C213.15 177.67 213.207 177.685 213.26 177.71C213.314 177.736 213.36 177.772 213.399 177.816C213.438 177.861 213.467 177.913 213.484 177.968C215.16 182.741 216.165 187.723 216.467 192.774C216.987 203.32 213.423 210.974 206.156 214.907C206.09 214.938 206.017 214.952 205.944 214.947Z" fill="#1D1D1B"/>
<path d="M46.3965 238.28C46.2814 238.279 46.1715 238.23 46.091 238.147C46.0103 238.062 45.9658 237.948 45.9671 237.83C45.9683 237.712 46.0152 237.6 46.0976 237.517C46.1798 237.435 46.2907 237.389 46.4059 237.39L200.45 237.243C200.565 237.244 200.676 237.291 200.756 237.376C200.836 237.459 200.882 237.573 200.88 237.691C200.878 237.809 200.832 237.922 200.749 238.004C200.667 238.087 200.557 238.133 200.441 238.132L46.3965 238.28Z" fill="#1D1D1B"/>
<path d="M141.017 61.3783C140.903 61.3772 140.794 61.3307 140.713 61.2488C140.632 61.1669 140.588 61.0565 140.589 60.9417C140.704 50.1908 132.935 48.2388 132.603 48.1607C132.545 48.1509 132.489 48.1292 132.439 48.0971C132.39 48.0648 132.347 48.0228 132.314 47.9734C132.281 47.9241 132.26 47.8687 132.249 47.8105C132.238 47.7522 132.24 47.6925 132.254 47.6349C132.267 47.5772 132.293 47.5231 132.328 47.4756C132.364 47.4282 132.409 47.3884 132.46 47.3589C132.511 47.3295 132.568 47.3109 132.628 47.3043C132.687 47.2976 132.746 47.3031 132.803 47.3203C132.889 47.3385 141.579 49.4836 141.456 60.9555C141.453 61.0692 141.406 61.1773 141.324 61.2564C141.241 61.3356 141.132 61.3794 141.017 61.3783Z" fill="#1D1D1B"/>
<path d="M170.108 102.572C169.99 102.572 169.874 102.542 169.771 102.485C169.605 102.392 169.482 102.237 169.429 102.054C169.378 101.871 169.4 101.675 169.493 101.508C172.237 96.4638 172.322 92.5344 172.322 92.494C172.327 92.3035 172.405 92.122 172.542 91.9889C172.678 91.8558 172.862 91.7818 173.052 91.7827C173.147 91.7836 173.241 91.8031 173.328 91.8402C173.415 91.8773 173.494 91.9312 173.56 91.9987C173.626 92.0664 173.679 92.1463 173.713 92.2341C173.749 92.3218 173.766 92.4157 173.765 92.5102C173.763 92.6832 173.686 96.8117 170.771 102.194C170.706 102.313 170.61 102.411 170.493 102.477C170.376 102.544 170.242 102.577 170.108 102.572Z" fill="white"/>
<path d="M125.239 229.809C126.645 229.822 127.797 228.694 127.812 227.289C127.827 225.883 126.7 224.734 125.294 224.721C123.888 224.708 122.736 225.837 122.721 227.242C122.706 228.647 123.833 229.796 125.239 229.809Z" fill="#51CEF4"/>
<path d="M156.871 199.194C158.276 199.207 159.428 198.078 159.443 196.674C159.458 195.268 158.331 194.119 156.925 194.106C155.52 194.093 154.368 195.221 154.353 196.627C154.338 198.032 155.465 199.181 156.871 199.194Z" fill="#51CEF4"/>
<path d="M157.484 232.479L93.1175 231.926C93.0999 231.926 93.083 231.918 93.07 231.906C93.0568 231.895 93.0483 231.88 93.0459 231.861C90.2808 213.787 90.0027 196.694 93.6282 181.144C93.6323 181.128 93.6418 181.114 93.655 181.103C93.6681 181.092 93.6844 181.087 93.7012 181.087L158.076 181.64C158.092 181.64 158.106 181.645 158.119 181.655C158.131 181.664 158.141 181.678 158.145 181.693C162.1 196.315 161.906 213.224 157.562 232.422C157.558 232.439 157.547 232.454 157.533 232.465C157.519 232.476 157.501 232.48 157.484 232.479Z" fill="#F05550"/>
<path d="M157.478 232.912L93.1121 232.359C92.9919 232.358 92.8759 232.314 92.7852 232.236C92.6944 232.157 92.6349 232.049 92.617 231.93C89.6125 212.285 89.8036 195.644 93.2012 181.045C93.228 180.934 93.2917 180.834 93.3824 180.762C93.473 180.691 93.5851 180.653 93.7002 180.654L158.075 181.207C158.185 181.208 158.291 181.246 158.378 181.312C158.466 181.379 158.529 181.472 158.559 181.578C162.511 196.199 162.317 213.338 157.975 232.514C157.948 232.627 157.885 232.727 157.795 232.799C157.704 232.871 157.593 232.911 157.478 232.912ZM93.4288 231.495L157.198 232.043C161.42 213.232 161.619 196.422 157.793 182.085L93.982 181.537C90.6887 195.868 90.5068 212.221 93.4288 231.495Z" fill="#1D1E1B"/>
<path d="M93.7694 181.133L101.88 173.196C101.894 173.184 101.913 173.177 101.932 173.177L150.083 173.595C150.103 173.596 150.121 173.604 150.135 173.617L158.064 181.692C158.074 181.703 158.08 181.716 158.083 181.731C158.086 181.745 158.083 181.76 158.078 181.774C158.073 181.787 158.063 181.799 158.051 181.807C158.039 181.815 158.025 181.82 158.01 181.82L93.82 181.261C93.8055 181.261 93.7914 181.256 93.7794 181.248C93.7676 181.239 93.7587 181.228 93.7533 181.214C93.7479 181.2 93.7464 181.185 93.7492 181.171C93.7521 181.156 93.7592 181.144 93.7694 181.133Z" fill="#F05550"/>
<path d="M157.993 182.253L93.8039 181.695C93.7036 181.694 93.606 181.663 93.5235 181.606C93.4408 181.549 93.3768 181.468 93.3395 181.375C93.3022 181.281 93.2932 181.179 93.3137 181.08C93.3343 180.981 93.3837 180.891 93.4552 180.82L101.565 172.889C101.613 172.843 101.669 172.805 101.731 172.78C101.793 172.756 101.859 172.743 101.926 172.744L150.076 173.162C150.143 173.162 150.208 173.176 150.27 173.202C150.331 173.227 150.387 173.266 150.433 173.313L158.361 181.384C158.431 181.456 158.479 181.547 158.497 181.646C158.515 181.745 158.504 181.848 158.465 181.941C158.426 182.033 158.359 182.113 158.275 182.169C158.192 182.224 158.093 182.253 157.993 182.253ZM94.688 180.831L157.129 181.373L149.919 174.039L102.064 173.623L94.688 180.831Z" fill="#1D1E1B"/>
<path d="M131.837 196.115C130.257 196.101 128.736 196.713 127.607 197.818C126.477 198.923 125.834 200.428 125.816 202.004C125.815 202.068 125.814 202.137 125.814 202.204C125.801 200.648 125.179 199.161 124.079 198.062C122.978 196.962 121.488 196.338 119.93 196.324C116.638 196.294 113.671 198.941 113.907 202.213C114.345 208.255 121.682 213.75 124.536 215.671C124.864 215.891 125.25 216.002 125.645 215.991C126.039 215.981 126.42 215.848 126.735 215.61C129.683 213.399 137.677 206.959 137.731 202.11C137.739 201.33 137.594 200.555 137.302 199.831C137.011 199.107 136.579 198.448 136.031 197.892C135.484 197.334 134.832 196.891 134.111 196.586C133.392 196.281 132.619 196.122 131.837 196.115Z" fill="white"/>
<path d="M125.572 216.425C125.117 216.421 124.674 216.283 124.298 216.03C121.192 213.942 113.924 208.433 113.479 202.244C113.427 201.462 113.539 200.678 113.809 199.941C114.079 199.205 114.501 198.533 115.047 197.969C115.676 197.305 116.435 196.778 117.276 196.421C118.118 196.063 119.024 195.883 119.938 195.891C120.418 197.085 121.25 198.105 122.326 198.816C123.4 199.527 124.666 199.895 125.956 199.873C127.247 199.85 128.501 199.438 129.553 198.689C130.606 197.941 131.407 196.892 131.85 195.682C133.544 195.699 135.16 196.386 136.344 197.593C137.528 198.798 138.184 200.424 138.167 202.115C138.112 207.087 130.34 213.451 127 215.955C126.588 216.265 126.086 216.43 125.572 216.425ZM119.928 196.748C119.135 196.745 118.349 196.903 117.618 197.213C116.888 197.523 116.228 197.979 115.68 198.552C115.216 199.029 114.859 199.597 114.628 200.221C114.398 200.844 114.301 201.509 114.344 202.17C114.763 207.97 121.783 213.286 124.783 215.303C125.036 215.472 125.335 215.557 125.639 215.549C125.942 215.54 126.235 215.437 126.478 215.255C129.004 213.362 137.247 206.813 137.3 202.098C137.316 200.637 136.75 199.231 135.726 198.188C134.702 197.146 133.305 196.553 131.841 196.54C130.377 196.527 128.965 197.094 127.919 198.118C126.872 199.143 126.275 200.539 126.259 202C126.258 202.055 126.258 202.109 126.256 202.167V202.213L125.389 202.206C125.369 200.765 124.788 199.39 123.768 198.373C122.749 197.356 121.371 196.776 119.928 196.756V196.748Z" fill="#1D1E1B"/>
<path d="M137.975 178.505L115.074 178.292C114.959 178.291 114.849 178.244 114.768 178.16C114.688 178.077 114.643 177.965 114.645 177.848C114.646 177.732 114.693 177.621 114.775 177.539C114.858 177.458 114.969 177.413 115.084 177.414L137.985 177.627C138.1 177.628 138.21 177.677 138.29 177.759C138.371 177.843 138.415 177.954 138.414 178.071C138.413 178.187 138.366 178.298 138.284 178.38C138.201 178.461 138.09 178.506 137.975 178.505Z" fill="#1D1E1B"/>
<path d="M136.712 178.063C136.75 178.016 136.792 177.97 136.826 177.922C137.289 177.292 137.624 176.577 137.809 175.818C137.996 175.059 138.031 174.272 137.912 173.5C137.793 172.728 137.523 171.988 137.118 171.321C136.712 170.655 136.178 170.075 135.548 169.614C134.918 169.154 134.202 168.821 133.442 168.637C132.682 168.454 131.892 168.42 131.119 168.54C130.346 168.661 129.604 168.932 128.935 169.338C128.265 169.744 127.683 170.277 127.221 170.908L127.097 171.066C127.995 169.79 128.356 168.216 128.102 166.68C127.849 165.145 127.001 163.772 125.742 162.855C123.091 160.92 119.135 161.353 117.418 164.156C115.061 168.005 115.98 173.828 117.098 177.881L136.712 178.063Z" fill="white"/>
<path d="M136.91 178.497L116.766 178.318L116.68 178.005C115.512 173.769 114.626 167.883 117.051 163.936C117.464 163.269 118.013 162.697 118.662 162.255C119.311 161.813 120.047 161.512 120.819 161.371C121.718 161.194 122.643 161.203 123.537 161.4C124.431 161.598 125.274 161.978 126.012 162.518C125.634 162.846 125.326 163.247 125.105 163.695C124.884 164.143 124.754 164.631 124.722 165.129C124.691 165.629 124.76 166.128 124.924 166.6C125.088 167.071 125.345 167.505 125.678 167.877C126.013 168.248 126.417 168.549 126.869 168.762C127.321 168.977 127.812 169.098 128.312 169.121C128.811 169.144 129.312 169.067 129.782 168.895C130.253 168.724 130.684 168.461 131.053 168.121C132.301 167.928 133.579 168.107 134.724 168.638C135.869 169.169 136.83 170.026 137.485 171.103C138.141 172.179 138.462 173.426 138.408 174.687C138.353 175.946 137.925 177.162 137.179 178.182C137.154 178.219 137.121 178.257 137.091 178.293L136.91 178.497ZM117.43 177.457L136.497 177.627C137.348 176.443 137.695 174.971 137.463 173.533C137.23 172.096 136.437 170.811 135.256 169.958C134.076 169.104 132.604 168.754 131.161 168.981C129.72 169.208 128.426 169.995 127.562 171.171L127.459 171.303L127.43 171.34L126.736 170.823C127.561 169.639 127.893 168.182 127.659 166.761C127.426 165.339 126.647 164.067 125.487 163.211C124.844 162.749 124.114 162.422 123.34 162.251C122.566 162.079 121.765 162.067 120.986 162.215C120.329 162.333 119.704 162.587 119.152 162.961C118.6 163.336 118.133 163.821 117.779 164.386C115.597 167.967 116.361 173.415 117.438 177.458L117.43 177.457Z" fill="#1D1E1B"/>
<path d="M154.73 228.327C154.617 228.327 154.507 228.3 154.407 228.249C154.307 228.198 154.221 228.124 154.155 228.034C154.088 227.943 154.044 227.838 154.026 227.727C154.007 227.616 154.016 227.502 154.049 227.395C159.735 208.792 155.151 186.121 155.101 185.891C155.063 185.703 155.1 185.508 155.205 185.347C155.309 185.187 155.473 185.076 155.66 185.036C155.846 184.998 156.041 185.034 156.2 185.139C156.36 185.243 156.472 185.407 156.511 185.595C156.557 185.826 161.219 208.846 155.424 227.812C155.379 227.961 155.288 228.092 155.162 228.185C155.037 228.278 154.885 228.328 154.73 228.327Z" fill="white"/>
<path d="M91.89 190.108C91.89 190.108 83.748 188.726 80.6839 196.9C77.6199 205.073 77.3374 213.601 81.8736 218.581C86.4098 223.563 91.6924 223.772 95.1267 222.077C98.5609 220.384 99.0883 216.603 96.12 212.772C96.12 212.772 101.415 208.72 95.7942 202.29C95.7942 202.29 101.319 193.227 91.803 193.52L91.89 190.108Z" fill="#FFCDB2"/>
<path d="M78.4462 209.474C78.2296 205.56 79.0728 201.183 80.6779 196.9C83.7422 188.725 91.8842 190.108 91.8842 190.108L91.7828 193.52C95.9859 193.39 97.2559 195.088 97.3615 197.031C97.4962 199.475 95.7744 202.298 95.7744 202.298C97.592 204.376 98.2681 206.205 98.3523 207.73C98.5278 210.925 96.1 212.78 96.1 212.78C97.3192 214.355 97.9462 215.922 98.0259 217.336C98.1363 219.355 97.1174 221.077 95.1066 222.086C91.6866 223.786 86.421 223.582 81.8529 218.59C79.6947 216.214 78.6263 213.041 78.4316 209.482L78.4462 209.474ZM77.7551 209.522C77.9715 213.453 79.1813 216.654 81.3538 219.041C83.5263 221.43 86.0839 222.973 88.7566 223.507C90.9954 223.974 93.3276 223.69 95.3918 222.7C97.6117 221.601 98.8124 219.635 98.6851 217.31C98.6057 215.867 98.0244 214.355 97.0004 212.878C97.6804 212.204 98.2117 211.394 98.56 210.503C98.9083 209.612 99.0658 208.658 99.0228 207.704C98.9243 205.908 98.1066 204.07 96.5926 202.23C97.0855 201.309 98.1477 199.071 98.0348 197.005C97.9313 195.129 96.8636 192.942 92.475 192.859L92.5571 190.148C92.5588 190.13 92.559 190.11 92.5577 190.091C92.549 189.937 92.4876 189.791 92.3836 189.677C92.2797 189.563 92.1395 189.489 91.9867 189.466C90.3975 189.259 88.7822 189.376 87.238 189.81C84.8786 190.47 81.7212 192.196 80.0329 196.686C78.3326 201.222 77.5465 205.664 77.7578 209.534L77.7551 209.522Z" fill="black"/>
<path d="M91.7236 214.059C88.6433 214.019 85.6798 212.884 83.3645 210.858C83.2847 210.777 83.2408 210.665 83.242 210.552C83.2433 210.437 83.2896 210.326 83.3711 210.246C83.4115 210.205 83.4597 210.174 83.5125 210.153C83.5654 210.131 83.622 210.121 83.6791 210.121C83.7361 210.122 83.7927 210.133 83.8452 210.156C83.8976 210.179 83.945 210.211 83.9846 210.251C84.1966 210.456 89.2071 215.273 96.7594 212.193C96.8662 212.15 96.9859 212.15 97.092 212.195C97.1982 212.239 97.2821 212.325 97.3255 212.431C97.3689 212.537 97.3682 212.657 97.3234 212.763C97.2785 212.869 97.1933 212.953 97.0865 212.997C95.3879 213.707 93.564 214.068 91.7236 214.059Z" fill="#1D1D1B"/>
<path d="M91.3375 203.799C89.2467 203.758 87.1692 203.464 85.15 202.923C85.0937 202.908 85.0406 202.882 84.9944 202.848C84.9483 202.812 84.9096 202.768 84.8808 202.718C84.8519 202.668 84.8335 202.612 84.8266 202.554C84.8196 202.496 84.8244 202.437 84.8406 202.381C84.8566 202.326 84.8837 202.274 84.9203 202.229C84.9568 202.183 85.0022 202.145 85.0534 202.119C85.1047 202.091 85.1609 202.075 85.2187 202.069C85.2766 202.064 85.3351 202.07 85.3904 202.088C85.4568 202.106 92.1319 203.971 96.2191 202.066C96.2709 202.043 96.3268 202.029 96.3839 202.026C96.4408 202.023 96.4977 202.033 96.5512 202.052C96.6047 202.072 96.6539 202.102 96.6958 202.14C96.7377 202.179 96.7719 202.226 96.7958 202.277C96.8198 202.329 96.8332 202.385 96.8356 202.441C96.838 202.499 96.8289 202.556 96.8092 202.61C96.7895 202.663 96.7596 202.713 96.7209 202.754C96.6823 202.796 96.6359 202.831 96.5841 202.854C95.0075 203.59 93.1204 203.816 91.3375 203.799Z" fill="#1D1D1B"/>
<path d="M86.039 194.136C85.9458 194.136 85.8554 194.105 85.7811 194.048C85.7068 193.993 85.6526 193.914 85.6266 193.824C85.6006 193.735 85.6041 193.64 85.6366 193.552C85.6692 193.465 85.7291 193.39 85.8073 193.34C88.3693 191.68 92.4703 192.782 92.655 192.824C92.71 192.839 92.7616 192.866 92.8066 192.9C92.8515 192.935 92.8891 192.978 92.9172 193.028C92.9453 193.078 92.9632 193.133 92.9702 193.188C92.9772 193.245 92.9729 193.303 92.9577 193.358C92.9425 193.413 92.9165 193.464 92.8814 193.509C92.8463 193.554 92.8027 193.592 92.7531 193.619C92.7035 193.647 92.6489 193.666 92.5923 193.673C92.5356 193.679 92.4783 193.675 92.4233 193.66C92.3858 193.66 88.5128 192.616 86.2773 194.06C86.2074 194.109 86.1243 194.136 86.039 194.136Z" fill="#1D1D1B"/>
<path d="M95.7488 196.811C95.6492 196.81 95.551 196.788 95.4601 196.748C90.7964 194.655 86.3445 196.34 86.3009 196.357C86.123 196.422 85.9265 196.415 85.7541 196.337C85.5817 196.259 85.4467 196.117 85.3782 195.941C85.3097 195.764 85.313 195.568 85.3874 195.395C85.4619 195.221 85.6018 195.083 85.7768 195.011C85.9803 194.931 90.8453 193.091 96.0562 195.429C96.2075 195.498 96.3308 195.615 96.4053 195.763C96.4799 195.911 96.5011 196.081 96.4655 196.243C96.4298 196.404 96.3392 196.55 96.2092 196.653C96.0793 196.757 95.9179 196.813 95.7519 196.812L95.7488 196.811Z" fill="white"/>
<path d="M90.8741 206.147C88.8377 206.103 86.8342 205.628 84.9959 204.754C84.9108 204.711 84.835 204.652 84.7728 204.579C84.7107 204.507 84.6634 204.423 84.6339 204.333C84.6044 204.241 84.5933 204.146 84.601 204.051C84.6087 203.956 84.6352 203.863 84.6789 203.778C84.7225 203.694 84.7826 203.619 84.8556 203.556C84.9285 203.495 85.0128 203.448 85.1038 203.419C85.1949 203.39 85.2908 203.38 85.386 203.388C85.481 203.397 85.5736 203.424 85.6581 203.467C85.7215 203.5 90.9902 206.119 95.3126 203.583C95.3947 203.535 95.4852 203.504 95.5793 203.49C95.6735 203.477 95.7693 203.482 95.8613 203.507C95.9532 203.531 96.0394 203.573 96.1152 203.629C96.1909 203.687 96.2546 203.759 96.3025 203.841C96.3506 203.922 96.3818 204.013 96.3947 204.107C96.4076 204.201 96.4019 204.297 96.3778 204.388C96.3537 204.481 96.3118 204.566 96.2544 204.642C96.1969 204.719 96.125 204.782 96.043 204.83C94.4724 205.733 92.6846 206.188 90.8741 206.147Z" fill="white"/>
<path d="M174.984 90.3643C174.41 88.8969 173.275 87.7182 171.829 87.0875C170.383 86.4568 168.744 86.4259 167.272 87.0014C165.8 87.577 164.617 88.7117 163.982 90.1562C163.347 91.6008 163.312 93.2367 163.885 94.7041C163.911 94.7621 163.93 94.8286 163.953 94.8922C163.358 93.4575 162.222 92.3142 160.789 91.7079C159.356 91.1016 157.741 91.0806 156.291 91.6495C153.227 92.8489 151.46 96.4059 152.905 99.3509C154.579 102.768 158.705 104.966 162.371 106.309C164.026 104.396 165.973 104.445 166.951 105.92C167.269 106.488 167.436 107.129 167.434 107.78L167.806 107.861C168.191 107.943 168.593 107.903 168.955 107.745C169.318 107.588 169.621 107.322 169.825 106.985C171.737 103.821 176.747 94.8763 174.984 90.3643Z" fill="white"/>
<path d="M168.179 108.321C168.023 108.319 167.869 108.303 167.717 108.271L167.342 108.189C167.249 108.169 167.166 108.118 167.105 108.046C167.044 107.975 167.008 107.885 167.002 107.79C167.006 107.216 166.865 106.65 166.593 106.145C166.441 105.895 166.231 105.684 165.981 105.532C165.731 105.379 165.448 105.288 165.156 105.266C164.353 105.216 163.483 105.681 162.706 106.581C162.648 106.647 162.572 106.694 162.487 106.716C162.4 106.738 162.311 106.734 162.228 106.703C157.222 104.875 153.956 102.462 152.518 99.5292C152.177 98.8248 151.988 98.0564 151.963 97.2735C151.938 96.4908 152.079 95.7112 152.375 94.9855C152.709 94.1355 153.215 93.3634 153.863 92.7179C154.51 92.0724 155.284 91.5676 156.136 91.2354C156.218 91.7235 156.394 92.1907 156.657 92.6102C156.918 93.0298 157.261 93.3935 157.665 93.6806C158.068 93.9677 158.525 94.1727 159.007 94.2836C159.49 94.3946 159.991 94.4095 160.48 94.3275C160.97 94.2454 161.438 94.0679 161.859 93.8054C162.28 93.5427 162.645 93.2001 162.933 92.797C163.222 92.3938 163.429 91.9381 163.54 91.4557C163.654 90.9734 163.669 90.4738 163.588 89.9858C164.096 88.8299 164.936 87.8495 166 87.1687C167.066 86.488 168.309 86.1374 169.573 86.1613C170.835 86.1852 172.063 86.5825 173.098 87.3031C174.134 88.0236 174.932 89.035 175.39 90.2091C177.198 94.8427 172.363 103.631 170.201 107.19C169.991 107.537 169.695 107.825 169.34 108.023C168.986 108.221 168.585 108.324 168.179 108.321ZM167.845 107.412H167.9C168.198 107.474 168.508 107.443 168.787 107.322C169.065 107.201 169.3 106.996 169.457 106.736C171.093 104.038 176.295 94.8982 174.58 90.5107C174.048 89.1505 172.996 88.0579 171.656 87.4734C170.315 86.8889 168.795 86.8602 167.431 87.3939C166.067 87.9274 164.97 88.9795 164.381 90.3186C163.792 91.6577 163.76 93.1743 164.292 94.5345L164.351 94.6995V94.737C164.389 94.8435 164.382 94.9603 164.335 95.0628C164.288 95.1654 164.201 95.2454 164.096 95.2859C163.99 95.3263 163.873 95.3241 163.77 95.2795C163.665 95.2349 163.584 95.1516 163.54 95.0473C162.985 93.7192 161.933 92.6606 160.606 92.0965C159.279 91.5323 157.784 91.507 156.437 92.026C155.7 92.3187 155.029 92.7584 154.467 93.318C153.905 93.8778 153.463 94.5457 153.168 95.2811C152.916 95.8965 152.796 96.5574 152.817 97.2211C152.836 97.8848 152.996 98.5368 153.284 99.1348C154.902 102.433 158.99 104.553 162.241 105.774C163.152 104.815 164.198 104.326 165.197 104.386C165.625 104.417 166.038 104.548 166.404 104.768C166.769 104.988 167.078 105.292 167.303 105.655C167.625 106.187 167.81 106.79 167.845 107.412Z" fill="black"/>
<path d="M177.052 89.8676C176.967 89.8674 176.883 89.8416 176.813 89.7936C176.742 89.7457 176.687 89.6776 176.656 89.5984C175.511 86.7644 173.892 85.0403 171.845 84.47C168.383 83.5086 164.755 86.1773 164.717 86.2058C164.625 86.2678 164.512 86.2921 164.402 86.2737C164.292 86.2551 164.194 86.1953 164.127 86.1065C164.061 86.0176 164.031 85.9066 164.043 85.7964C164.057 85.6861 164.112 85.585 164.197 85.5139C164.359 85.3912 168.192 82.5599 172.075 83.635C174.397 84.2771 176.209 86.176 177.461 89.2737C177.483 89.3271 177.494 89.3846 177.495 89.4426C177.495 89.5006 177.483 89.5581 177.462 89.6117C177.439 89.6652 177.406 89.7137 177.365 89.7546C177.323 89.7953 177.274 89.8274 177.22 89.8489C177.166 89.8661 177.109 89.8725 177.052 89.8676Z" fill="#1D1D1B"/>
<path d="M212.92 38.9218C211.687 38.2325 210.331 37.7928 208.927 37.6277C207.523 37.4626 206.099 37.5753 204.737 37.9596C203.375 38.3439 202.101 38.9921 200.989 39.8671C199.877 40.7422 198.947 41.8271 198.254 43.0597C198.198 43.1574 198.133 43.2636 198.068 43.367C199.405 40.8848 199.714 37.9808 198.93 35.2793C198.146 32.5777 196.331 30.2943 193.874 28.9196C188.705 26.023 181.686 27.6603 179.211 33.0576C174.639 43.0388 181.47 58.1323 184.317 63.6564C184.644 64.289 185.159 64.8037 185.792 65.1285C186.426 65.4533 187.147 65.572 187.852 65.468C194.446 64.5084 212.713 61.2068 217.022 53.5532C218.422 51.064 218.777 48.1244 218.007 45.3807C217.238 42.6368 215.408 40.3135 212.92 38.9218Z" fill="white"/>
<path d="M187.321 65.9369C186.619 65.9307 185.932 65.7336 185.335 65.3668C184.737 65.0001 184.252 64.4774 183.931 63.8552C180.86 57.8934 174.206 42.9399 178.817 32.8783C179.395 31.6353 180.229 30.5265 181.261 29.6235C182.295 28.7204 183.505 28.0431 184.815 27.6353C186.341 27.1397 187.953 26.9645 189.549 27.1209C191.144 27.2772 192.69 27.7615 194.087 28.5435C193.576 30.9256 193.858 33.4069 194.889 35.6101C195.921 37.8133 197.646 39.6178 199.801 40.7495C201.956 41.881 204.425 42.2779 206.831 41.8795C209.237 41.4813 211.45 40.3096 213.132 38.5427C215.719 39.993 217.62 42.4101 218.42 45.2637C219.219 48.1174 218.852 51.1745 217.397 53.7643C213.057 61.4783 195.332 64.8337 187.914 65.8959C187.717 65.9253 187.519 65.939 187.321 65.9369ZM188.471 27.9439C187.322 27.931 186.178 28.1045 185.083 28.4575C183.887 28.8292 182.782 29.4464 181.839 30.2696C180.895 31.0929 180.134 32.1038 179.605 33.2373C175.157 42.9539 181.686 57.609 184.704 63.4577C184.989 64.0096 185.439 64.4585 185.993 64.7422C186.546 65.0258 187.175 65.1301 187.791 65.0403C193.48 64.2231 212.375 60.9211 216.643 53.3421C217.331 52.158 217.778 50.8498 217.956 49.4933C218.135 48.1368 218.041 46.7593 217.682 45.4407C217.322 44.1221 216.703 42.8887 215.862 41.8123C215.02 40.7358 213.972 39.8379 212.779 39.1705C211.585 38.5032 210.271 38.0797 208.91 37.9248C207.55 37.7697 206.171 37.8865 204.855 38.268C203.539 38.6496 202.311 39.2883 201.242 40.1472C200.174 41.0061 199.287 42.0679 198.633 43.271C198.585 43.3514 198.536 43.4376 198.482 43.5209L198.438 43.5927L197.685 43.1647C198.955 40.7799 199.244 37.9975 198.494 35.4085C197.742 32.8196 196.009 30.6279 193.662 29.2991C192.073 28.4219 190.289 27.9561 188.471 27.9439Z" fill="#1D1E1B"/>
<path d="M190.925 36.8039C190.846 36.8037 190.768 36.7818 190.702 36.7405C190.634 36.6991 190.579 36.64 190.543 36.5696C180.07 16.0103 160.655 10.6164 160.465 10.5743C160.41 10.5596 160.358 10.5342 160.313 10.4996C160.268 10.4649 160.23 10.4217 160.201 10.3724C160.173 10.3231 160.155 10.2687 160.147 10.2122C160.14 10.1558 160.144 10.0984 160.158 10.0433C160.173 9.98834 160.199 9.93681 160.233 9.89161C160.269 9.84641 160.312 9.80844 160.361 9.77993C160.411 9.75142 160.465 9.73288 160.522 9.72541C160.579 9.71794 160.636 9.72173 160.691 9.73643C160.895 9.79308 165.745 11.112 171.981 15.0321C180.219 20.2116 186.9 27.5147 191.323 36.1725C191.372 36.2742 191.381 36.3914 191.344 36.4991C191.309 36.6067 191.232 36.6961 191.131 36.7481C191.069 36.7842 190.998 36.8034 190.925 36.8039Z" fill="black"/>
<path d="M185.033 37.5902C184.96 37.5895 184.89 37.5709 184.827 37.5361C184.763 37.5012 184.709 37.4513 184.671 37.3907C176.541 24.6988 166.4 24.9521 166.296 24.957C166.238 24.9595 166.181 24.9508 166.128 24.9314C166.075 24.912 166.025 24.8821 165.983 24.8437C165.941 24.8052 165.907 24.7589 165.883 24.7074C165.86 24.6558 165.846 24.5999 165.843 24.543C165.84 24.4861 165.85 24.4293 165.869 24.3758C165.889 24.3223 165.919 24.2731 165.958 24.231C165.996 24.189 166.043 24.155 166.094 24.1309C166.146 24.1068 166.202 24.0931 166.259 24.0906C166.693 24.0742 176.985 23.7847 185.398 36.9237C185.44 36.9893 185.464 37.065 185.466 37.1429C185.469 37.2207 185.45 37.2978 185.412 37.3661C185.375 37.4342 185.32 37.4911 185.252 37.5305C185.184 37.57 185.108 37.5906 185.03 37.5902H185.033Z" fill="black"/>
<path d="M210.336 56.5869C210.212 56.5852 210.092 56.5521 209.984 56.4905C209.876 56.429 209.787 56.3412 209.722 56.2354C209.674 56.1543 209.642 56.0645 209.629 55.9709C209.615 55.8774 209.619 55.782 209.643 55.6904C209.666 55.5986 209.707 55.5125 209.763 55.4366C209.82 55.3608 209.891 55.2968 209.973 55.2484C212.981 53.441 214.616 51.3532 214.834 49.0393C215.204 45.1319 211.426 41.7326 211.388 41.6977C211.317 41.635 211.259 41.5588 211.218 41.4737C211.176 41.3885 211.152 41.2961 211.147 41.2015C211.14 41.1069 211.153 41.0121 211.184 40.9224C211.216 40.8328 211.264 40.7501 211.328 40.6791C211.39 40.6081 211.467 40.5501 211.552 40.5085C211.637 40.4669 211.729 40.4425 211.824 40.4367C211.919 40.4308 212.015 40.4437 212.104 40.4744C212.193 40.5052 212.276 40.5533 212.347 40.6161C212.525 40.7734 216.704 44.5252 216.271 49.1616C216.012 51.9625 214.143 54.4233 210.704 56.4835C210.593 56.5505 210.466 56.5862 210.336 56.5869Z" fill="white"/>
<path d="M52.7355 29.7917C52.1274 30.1075 51.5874 30.5396 51.1463 31.0636C50.7051 31.5877 50.3716 32.1933 50.1649 32.8455C49.9581 33.4979 49.882 34.1841 49.9412 34.865C50.0005 35.5459 50.1939 36.2081 50.5099 36.8135C50.5355 36.8628 50.5606 36.9179 50.5861 36.973C49.9366 35.7756 48.8411 34.8825 47.5359 34.4861C46.2307 34.0899 44.8204 34.2223 43.6092 34.8547C41.053 36.1867 39.8506 39.4412 41.3836 41.8794C44.2228 46.3609 52.1554 47.581 55.1554 47.8896C55.4987 47.924 55.8446 47.8507 56.145 47.68C56.4452 47.5093 56.6851 47.2496 56.8313 46.937C58.1974 44.0157 61.7209 35.7551 59.7637 31.9942C59.4493 31.3874 59.0178 30.8489 58.494 30.4096C57.9703 29.9703 57.3648 29.6389 56.7118 29.4342C56.0588 29.2297 55.3714 29.1559 54.6891 29.2172C54.0068 29.2785 53.3428 29.4738 52.7355 29.7917Z" fill="white"/>
<path d="M55.2918 48.3298L55.0982 48.3281C51.8298 47.994 43.9123 46.7222 41.005 42.1188C40.6387 41.5309 40.4 40.8724 40.3043 40.186C40.2086 39.4995 40.258 38.8002 40.4495 38.1332C40.661 37.3562 41.0305 36.6309 41.5351 36.0024C42.0397 35.3739 42.6686 34.8558 43.3822 34.4806C44.2545 35.1751 45.3143 35.5947 46.4275 35.6862C47.5408 35.7775 48.6571 35.5366 49.6348 34.9938C50.6125 34.4511 51.4078 33.6312 51.9194 32.6379C52.4309 31.6446 52.636 30.5227 52.5086 29.4148C53.8367 28.7233 55.3837 28.585 56.8106 29.0301C58.2376 29.4752 59.4282 30.4674 60.1213 31.7895C62.1407 35.6693 58.7492 43.7983 57.1963 47.1164C57.0276 47.4788 56.7587 47.7857 56.4212 48.0007C56.0837 48.2158 55.6917 48.33 55.2918 48.3298ZM46.0304 34.7025C45.2537 34.6946 44.4867 34.8794 43.7983 35.2405C43.19 35.5608 42.6534 36.0017 42.2212 36.5361C41.7891 37.0705 41.4708 37.6871 41.2855 38.3481C41.1258 38.9001 41.0837 39.4789 41.1618 40.0475C41.2399 40.616 41.4363 41.1614 41.7387 41.6488C44.4416 45.93 52.045 47.1356 55.1892 47.4571C55.4426 47.483 55.6979 47.4292 55.9196 47.3032C56.1413 47.1774 56.3184 46.9856 56.4259 46.7547C57.5935 44.2561 61.2603 35.8264 59.3652 32.193C58.7808 31.0725 57.7743 30.2306 56.5668 29.8522C55.3593 29.4738 54.0494 29.5897 52.9247 30.1746C51.8002 30.7615 50.9536 31.7692 50.5706 32.9766C50.1877 34.1841 50.2999 35.4925 50.8823 36.6149C50.9049 36.6555 50.9245 36.6989 50.9471 36.7454L50.967 36.783L50.1935 37.1805C49.7835 36.4349 49.1817 35.8122 48.4501 35.3767C47.7185 34.9412 46.8832 34.7084 46.0304 34.7025Z" fill="#1D1E1B"/>
<path d="M55.3473 33.0539C55.2758 33.0529 55.2059 33.0344 55.1434 33.0001C55.0809 32.9658 55.0278 32.9167 54.9887 32.8571C54.9497 32.7974 54.926 32.7291 54.9195 32.6581C54.913 32.5872 54.9243 32.5157 54.952 32.4499C55.0322 32.263 56.9707 27.8024 61.6105 23.1061C65.8964 18.7704 73.3777 13.4554 84.6959 12.7362C84.7529 12.7326 84.8103 12.7401 84.8644 12.7585C84.9183 12.7769 84.9683 12.8057 85.0111 12.8435C85.054 12.8811 85.0887 12.9268 85.1138 12.978C85.139 13.0291 85.1536 13.0848 85.1572 13.1417C85.1607 13.1985 85.153 13.2556 85.1345 13.3096C85.116 13.3635 85.087 13.4134 85.0492 13.4561C85.0114 13.499 84.9655 13.534 84.9142 13.5592C84.8629 13.5844 84.8072 13.5992 84.7501 13.6028C73.7215 14.3015 66.4296 19.4709 62.255 23.6864C57.7176 28.2652 55.7701 32.7459 55.7494 32.789C55.7166 32.8683 55.6607 32.9359 55.589 32.9832C55.5173 33.0304 55.4331 33.055 55.3473 33.0539Z" fill="black"/>
<path d="M53.2658 21.4735C53.1851 21.4717 53.1063 21.4481 53.0381 21.405C52.99 21.3749 52.9483 21.3354 52.9156 21.289C52.883 21.2427 52.86 21.1904 52.8476 21.135C52.8353 21.0796 52.8341 21.0223 52.8441 20.9664C52.8541 20.9105 52.875 20.8571 52.9057 20.8093C52.9734 20.7031 59.813 10.0618 70.8386 6.08744C70.9445 6.05943 71.057 6.07246 71.1536 6.12392C71.2502 6.17539 71.3236 6.26145 71.3591 6.36484C71.3946 6.46824 71.3895 6.58126 71.3449 6.68125C71.3002 6.78123 71.2196 6.86075 71.1187 6.9038C60.3749 10.7739 53.6883 21.18 53.6237 21.2718C53.5849 21.3319 53.5322 21.3818 53.4698 21.4169C53.4074 21.4521 53.3374 21.4715 53.2658 21.4735Z" fill="black"/>
<path d="M55.8459 45.5148C55.723 45.5141 55.6028 45.4818 55.4961 45.4211C55.3895 45.3606 55.2999 45.2737 55.2365 45.1688C55.1732 45.0637 55.1379 44.9442 55.1339 44.8215C55.1299 44.6989 55.1575 44.5772 55.2139 44.4682C58.2543 38.5518 57.7646 34.3285 57.7593 34.2852C57.7382 34.0975 57.7917 33.9087 57.9083 33.7597C58.025 33.6107 58.1954 33.5132 58.3829 33.4884C58.5705 33.4636 58.7599 33.5134 58.9109 33.6271C59.0617 33.7408 59.162 33.9092 59.1897 34.0962C59.2164 34.2838 59.7581 38.7729 56.4965 45.1227C56.4354 45.2421 56.3421 45.3422 56.2271 45.4115C56.1121 45.4809 55.98 45.5167 55.8459 45.5148Z" fill="white"/>
</g>
</g>
<defs>
<clipPath id="clip0_59_1106">
<rect width="239" height="238" fill="white"/>
</clipPath>
</defs>
</svg>
